<svg xmlns="http://www.w3.org/2000/svg" data-name="Layer 1" viewBox="0 0 512 512" id="bank-transfer"><path fill="#fddd5a" d="M282 459.532h140.94V504.5l81.56-81.56-81.56-81.561v44.969H282"></path><path fill="#fed030" d="M422.94 341.379v30l51.56 51.561-51.56 51.56v30l81.56-81.56-81.56-81.561z"></path><path fill="#fddd5a" d="M231 125.652H89.06v44.969L7.5 89.06 89.06 7.5v44.968H231"></path><circle cx="256" cy="256" r="155" fill="#fff"></circle><path fill="#e1e1e3" d="M256 101a156.241 156.241 0 0 0-22.5 1.631 155.012 155.012 0 0 1 0 306.738A155.005 155.005 0 1 0 256 101Z"></path><path fill="#8b8893" d="M256 418.5c-89.602 0-162.5-72.897-162.5-162.5S166.398 93.5 256 93.5 418.5 166.397 418.5 256 345.603 418.5 256 418.5Zm0-310c-81.332 0-147.5 66.168-147.5 147.5S174.668 403.5 256 403.5 403.5 337.332 403.5 256 337.332 108.5 256 108.5Z"></path><path fill="#aeadb3" d="m178.18 207.315 71.254-62.036a10 10 0 0 1 13.132 0l71.253 62.036Z"></path><path fill="#8b8893" d="M262.566 145.279a10 10 0 0 0-13.132 0L241 152.62l62.82 54.694h30Z"></path><path fill="#aeadb3" d="M256 331.5a7.5 7.5 0 0 1-7.5-7.5V222.5a7.5 7.5 0 0 1 15 0V324a7.5 7.5 0 0 1-7.5 7.5zm60 0a7.5 7.5 0 0 1-7.5-7.5V222.5a7.5 7.5 0 0 1 15 0V324a7.5 7.5 0 0 1-7.5 7.5zm-120 0a7.5 7.5 0 0 1-7.5-7.5V222.5a7.5 7.5 0 0 1 15 0V324a7.5 7.5 0 0 1-7.5 7.5zm30 0a7.5 7.5 0 0 1-7.5-7.5V222.5a7.5 7.5 0 0 1 15 0V324a7.5 7.5 0 0 1-7.5 7.5zm60 0a7.5 7.5 0 0 1-7.5-7.5V222.5a7.5 7.5 0 0 1 15 0V324a7.5 7.5 0 0 1-7.5 7.5z"></path><path fill="#8b8893" d="M178.18 207.315h155.64v20a10 10 0 0 1-10 10H188.18a10 10 0 0 1-10-10v-20Z"></path><path fill="#787681" d="M303.82 207.315v20a10 10 0 0 1-10 10h30a10 10 0 0 0 10-10v-20Z"></path><path fill="#8b8893" d="M333.82 340.033H178.18l7.779-23.181a10 10 0 0 1 9.48-6.82h121.122a10 10 0 0 1 9.48 6.82Z"></path><path fill="#787681" d="M326.041 316.852a10 10 0 0 0-9.48-6.82h-30a10 10 0 0 1 9.48 6.82l7.778 23.18h30Z"></path><circle cx="256" cy="180" r="7.5" fill="#fff"></circle></svg>