<svg xmlns="http://www.w3.org/2000/svg" width="32" height="32" id="box"><path fill="#fcd062" fill-rule="evenodd" d="M14.496 13.224v14.774s-8.093-3.463-11.484-4.91l-.01-.017V8.306l.01.019 11.474 4.91z"></path><path fill="#f8aa3a" fill-rule="evenodd" d="m25.98 8.305-.01.018-11.474 4.911V28l11.475-4.912.01-.018V8.305z"></path><path fill="#f8b84e" fill-rule="evenodd" d="M14.304 3.397 3 8.307v.012l11.497 4.933 11.503-4.945-11.384-4.91h-.31z"></path><path fill="none" stroke="#1c4d7e" stroke-linecap="round" stroke-linejoin="round" stroke-width=".908" d="m22.194 21.605-2.868 1.227-2.869 1.228m2.869-3.191-2.869 1.227"></path><path fill="#e9eded" fill-rule="evenodd" d="m18.043 4.88-.07.026-11.42 4.938v6.935l2.027-1 2 3-.002-7.206L22 6.583z"></path></svg>