<svg xmlns="http://www.w3.org/2000/svg" enable-background="new 0 0 128 128" viewBox="0 0 128 128" id="cash"><path fill="#C1C1C0" d="M112,105H21.1c-2.8,0-5.1-2.6-5.1-5.4V56.4c0-2.8,2.3-5.4,5.1-5.4H112"></path><path fill="none" stroke="#3D3D3D" stroke-miterlimit="10" stroke-width="2" d="M112,105H21.1c-2.8,0-5.1-2.6-5.1-5.4V56.4  c0-2.8,2.3-5.4,5.1-5.4H112"></path><path fill="#E2E2E2" d="M120,99.9c0,2.8-2.3,5.1-5.1,5.1H25.1c-2.8,0-5.1-2.3-5.1-5.1V56.1c0-2.8,2.3-5.1,5.1-5.1h89.8  c2.8,0,5.1,2.3,5.1,5.1V99.9z"></path><path fill="none" stroke="#3D3D3D" stroke-miterlimit="10" stroke-width="2" d="M120,99.9c0,2.8-2.3,5.1-5.1,5.1H25.1  c-2.8,0-5.1-2.3-5.1-5.1V56.1c0-2.8,2.3-5.1,5.1-5.1h89.8c2.8,0,5.1,2.3,5.1,5.1V99.9z"></path><line x1="26" x2="114" y1="60" y2="60" fill="none" stroke="#3D3D3D" stroke-miterlimit="10" stroke-width="2"></line><rect width="36" height="37" x="32" y="23" fill="#53AF80"></rect><rect width="36" height="37" x="32" y="23" fill="none" stroke="#3D3D3D" stroke-miterlimit="10" stroke-width="2"></rect><rect width="34" height="37" x="37" y="23" fill="#53AF80"></rect><rect width="34" height="37" x="37" y="23" fill="none" stroke="#3D3D3D" stroke-miterlimit="10" stroke-width="2"></rect><rect width="35" height="37" x="42" y="23" fill="#53AF80"></rect><rect width="25" height="32" x="46" y="28" fill="#8DCEA8"></rect><path fill="#53AF80" d="M68.1,60.3c0.8-1.4,1.2-3,1.2-4.7c0-5.5-4.5-10-10-10s-10,4.5-10,10c0,1.8,0.5,3.5,1.3,4.9"></path><rect width="35" height="37" x="42" y="23" fill="none" stroke="#3D3D3D" stroke-miterlimit="10" stroke-width="2"></rect><path fill="#53AF80" d="M71.6 36.5c-4.7 0-8.5-3.5-8.5-8.5H72L71.6 36.5zM55.1 28c0 5-4.1 9-9.1 9v-9H55.1z"></path><rect width="25" height="32" x="46" y="28" fill="none" stroke="#3D3D3D" stroke-miterlimit="10" stroke-width="2"></rect><path fill="none" stroke="#3D3D3D" stroke-miterlimit="10" stroke-width="2" d="M55.1 28.4c0 4.7-3.8 8.5-8.5 8.5M63.1 28.4c0 4.7 3.8 8.5 8.5 8.5"></path><path fill="#8DCEA8" d="M95.1,74.2c0-3.7,3-6.7,6.7-6.7c3.7,0,6.7,3,6.7,6.7"></path><path fill="none" stroke="#3D3D3D" stroke-miterlimit="10" stroke-width="2" d="M95.1,74.2c0-3.7,3-6.7,6.7-6.7c3.7,0,6.7,3,6.7,6.7  "></path><path fill="#8DCEA8" d="M85.1,74.2c0-4.4,3.6-8,8-8s8,3.6,8,8"></path><path fill="none" stroke="#3D3D3D" stroke-miterlimit="10" stroke-width="2" d="M85.1 74.2c0-4.4 3.6-8 8-8s8 3.6 8 8M68.1 60.3c.8-1.4 1.2-3 1.2-4.7 0-5.5-4.5-10-10-10s-10 4.5-10 10c0 1.8.5 3.5 1.3 4.9M25 75h33.6c2.8 0 4.4.8 4.4 3.6V100"></path><path fill="none" stroke="#3D3D3D" stroke-miterlimit="10" stroke-width="2" d="M25 87h33.6c2.8 0 4.4 1.5 4.4 4.3v8.7M114 75H80.2c-2.8 0-4.2.8-4.2 3.6V100"></path><line x1="69" x2="69" y1="63" y2="102" fill="none" stroke="#3D3D3D" stroke-dasharray="3 4" stroke-linecap="square" stroke-linejoin="round" stroke-miterlimit="10" stroke-width="2"></line><path fill="#E2E2E2" d="M10,82.9c-2.5,0-4.6-1.5-4.6-4c0-2.5,1.8-4,4.3-4H18v8.1L10,82.9z"></path><path fill="none" stroke="#3D3D3D" stroke-miterlimit="10" stroke-width="2" d="M10,82.9c-2.5,0-4.6-1.5-4.6-4c0-2.5,1.8-4,4.3-4H18  v8.1L10,82.9z"></path><circle cx="9.7" cy="78.6" r="1.9" fill="#3D3D3D"></circle><rect width="27" height="20" x="81" y="40" fill="#FFF"></rect><rect width="27" height="20" x="81" y="40" fill="none" stroke="#3D3D3D" stroke-miterlimit="10" stroke-width="2"></rect><line x1="87" x2="102" y1="49" y2="49" fill="none" stroke="#3D3D3D" stroke-miterlimit="10" stroke-width="2"></line><line x1="87" x2="102" y1="53" y2="53" fill="none" stroke="#3D3D3D" stroke-miterlimit="10" stroke-width="2"></line><line x1="87" x2="102" y1="57" y2="57" fill="none" stroke="#3D3D3D" stroke-miterlimit="10" stroke-width="2"></line><path fill="#53AF80" d="M53.2,65H36c-1.2,0-2,1-2,2.2V75h21v-7.8C55,66,54.4,65,53.2,65z"></path><path fill="none" stroke="#3D3D3D" stroke-miterlimit="10" stroke-width="2" d="M53,65H36c-1.1,0-2,0.9-2,2v8h21v-8  C55,65.9,54.1,65,53,65z"></path><rect width="6" height="11" x="38" y="65" fill="#3D3D3D"></rect></svg>