<svg xmlns="http://www.w3.org/2000/svg" xmlns:xlink="http://www.w3.org/1999/xlink" width="1097.569" height="1104.82" enable-background="new 0 0 1920 1080" viewBox="428.871 -34.189 1097.569 1104.82" id="girl-announcing-shopping-super-sale"><g><path fill="#00093d" d="M1428.58,267.49c0.01,0,0.03,0.17,0.04,0.5c0.01,0.34,0.02,0.83,0.04,1.48c0.02,1.3,0.05,3.24,0,5.76        c-0.04,2.52-0.14,5.63-0.51,9.27c-0.38,3.63-1,7.81-2.39,12.32c-0.74,2.24-1.6,4.58-2.86,6.87c-1.19,2.32-2.78,4.57-4.7,6.68        c-3.8,4.28-9.34,7.48-15.6,9.34c-6.29,1.87-13.3,2.51-20.59,2.34c-7.3-0.16-14.95-1.15-22.7-3.1l0.48-0.16        c-2.07,2.5-4.35,4.95-6.95,7.15c-2.59,2.21-5.55,4.14-8.84,5.51c-3.29,1.34-6.88,2.18-10.57,2.17        c-3.68,0.04-7.46-0.93-10.71-2.92l-0.98-0.6l1.1-0.34c8.15-2.51,15.47-9.02,19.14-17.46l0.26,0.69        c-2.84-1.36-5.68-2.98-8.33-4.99c-2.65-2-5.09-4.43-7.02-7.24c-3.63-5.2-5.52-11.28-6.57-17.26        c-1.06-6.01-1.34-12.01-1.58-17.89c-0.2-5.87-0.15-11.8,1.54-17.35c0.84-2.76,2.12-5.38,3.86-7.64        c1.72-2.26,3.79-4.19,6.04-5.8c2.24-1.62,4.66-2.92,7.14-3.95c2.48-1.03,5.01-1.85,7.56-2.44c2.55-0.57,5.11-0.95,7.65-1.14        c2.54-0.19,5.06-0.08,7.49-0.05c9.79,0.17,18.98,0.33,27.46,0.47l-0.03,0.8c-0.03,0.17,0.1-1.52,0.06-0.8l0.03,0l0.06,0        l0.12,0.01l0.24,0.02l0.48,0.04l0.95,0.09c0.63,0.07,1.26,0.13,1.88,0.2c1.25,0.14,2.48,0.3,3.69,0.48        c2.42,0.36,4.77,0.78,7.04,1.27c4.53,0.99,8.76,2.23,12.51,3.94c1.87,0.86,3.61,1.84,5.15,3.01c0.77,0.58,1.48,1.22,2.11,1.9        c0.32,0.34,0.6,0.71,0.87,1.07c0.27,0.36,0.56,0.7,0.8,1.08c1.99,2.94,3.12,6.02,3.79,8.83c0.69,2.81,0.98,5.37,1.15,7.59        c0.17,2.22,0.22,4.1,0.24,5.61c0.02,1.52,0.01,2.68,0,3.46c-0.01,0.38-0.02,0.67-0.02,0.88        C1428.6,267.39,1428.59,267.49,1428.58,267.49s-0.02-0.1-0.03-0.3c-0.01-0.21-0.02-0.5-0.04-0.88        c-0.03-0.79-0.06-1.94-0.11-3.45c-0.05-1.51-0.14-3.39-0.34-5.59c-0.21-2.2-0.54-4.74-1.25-7.51        c-0.7-2.77-1.84-5.78-3.81-8.63c-1.87-2.94-5.05-5.14-8.74-6.78c-3.7-1.66-7.89-2.86-12.39-3.82c-2.25-0.47-4.59-0.88-7-1.22        c-1.2-0.17-2.43-0.32-3.67-0.46c-0.62-0.06-1.24-0.12-1.87-0.19l-0.94-0.08l-0.47-0.04l-0.24-0.02l-0.12-0.01l-0.06,0l-0.03,0        c-0.05,0.72,0.03-0.98,0.04-0.8l0.04,0.8l-0.07,0c-8.48-0.11-17.68-0.23-27.47-0.36c-2.46-0.02-4.92-0.11-7.41,0.08        c-2.49,0.2-5,0.57-7.5,1.14c-2.5,0.58-4.98,1.39-7.4,2.4c-2.42,1.01-4.77,2.28-6.94,3.86c-2.17,1.56-4.17,3.42-5.81,5.59        c-1.66,2.16-2.87,4.66-3.68,7.33c-1.62,5.35-1.68,11.18-1.47,17.01c0.24,5.86,0.53,11.82,1.58,17.74        c1.04,5.89,2.9,11.81,6.4,16.83c3.74,5.48,9.38,9.22,14.93,11.88l0.46,0.22l-0.21,0.47c-3.8,8.72-11.35,15.43-19.81,18.03        l0.12-0.94c3.06,1.87,6.63,2.81,10.16,2.77c3.53,0.02,7-0.78,10.18-2.07c3.18-1.32,6.05-3.18,8.59-5.33        c2.55-2.14,4.8-4.55,6.85-7.01l0.19-0.23l0.29,0.07c7.67,1.96,15.25,2.96,22.49,3.15c7.23,0.2,14.15-0.41,20.34-2.22        c6.17-1.81,11.58-4.9,15.32-9.05c1.89-2.04,3.47-4.23,4.65-6.51c1.25-2.24,2.12-4.54,2.87-6.74c1.41-4.44,2.07-8.59,2.49-12.2        c0.42-3.61,0.56-6.72,0.65-9.23c0.1-2.52,0.12-4.45,0.14-5.75c0.02-0.64,0.03-1.13,0.04-1.48        C1428.55,267.66,1428.57,267.49,1428.58,267.49z"></path><polygon fill="#e56a6a" points="1366.49 299.95 1341.74 278.25 1350.9 267.8 1366.22 281.24 1396.57 253.03 1406.03 263.21"></polygon><path fill="#d9cee2" d="M568.29,811.86L568.29,811.86L568.29,811.86c5.52-1.14,9.7-5.68,10.38-11.28v0v0    c1.14,5.52,5.68,9.7,11.28,10.38l0,0l0,0c-5.52,1.14-9.7,5.68-10.38,11.28l0,0l0,0C578.42,816.72,573.88,812.55,568.29,811.86z"></path><polygon fill="#ef9a9a" points="903.67 266.09 802.9 288.45 824.26 353.02 825.99 358.28 832.81 378.97 794.31 364.1 783.3 359.84 780.93 358.95 774.96 356.62 774.75 356.53 769.23 354.45 767.29 353.7 758.38 350.21 743.85 344.63 742.56 348.6 740.7 354.44 736.45 367.82 734.43 374.24 714.93 435.54 663.13 355.38 586.31 411.96 589.21 358.74 589.35 355.84 591.48 316.69 496.11 317.24 556.25 243.22 554.36 241.87 478.76 187.62 570.94 163.07 540.98 72.54 616.51 101.72 620.13 103.12 629.94 106.88 658.9 16.03 663.53 23.23 710.66 96.12 776.03 48.07 787.53 39.61 786.32 61.52 782.32 134.82 877.68 134.27 817.6 208.29"></polygon><text transform="translate(591.798 223.305)"><tspan x="0" y="0" fill="#fff" font-family="MyriadPro-Regular" font-size="73.588">SUPER</tspan><tspan x="23.29" y="69.67" fill="#fff" font-family="MyriadPro-Regular" font-size="73.588">SALE</tspan></text><path fill="#fff" d="M600.11 328.85L600.11 328.85 600.11 328.85c7.45-1.55 13.09-7.67 14.02-15.23l0 0 0 0c1.55 7.45 7.67 13.09 15.23 14.02l0 0 0 0c-7.45 1.55-13.09 7.67-14.02 15.23l0 0 0 0C613.79 335.42 607.66 329.78 600.11 328.85zM596.49 126.87L596.49 126.87 596.49 126.87c7.45-1.55 13.09-7.67 14.02-15.23l0 0 0 0c1.55 7.45 7.67 13.09 15.23 14.02l0 0 0 0c-7.45 1.55-13.09 7.67-14.02 15.23l0 0 0 0C610.17 133.44 604.05 127.8 596.49 126.87zM677.29 107.96L677.29 107.96 677.29 107.96c4.22-.88 7.42-4.35 7.94-8.63l0 0 0 0c.88 4.22 4.35 7.42 8.63 7.94l0 0 0 0c-4.22.88-7.42 4.35-7.94 8.63l0 0 0 0C685.04 111.68 681.57 108.48 677.29 107.96zM774.42 148.66L774.42 148.66 774.42 148.66c4.22-.88 7.42-4.35 7.94-8.63l0 0 0 0c.88 4.22 4.35 7.42 8.63 7.94l0 0 0 0c-4.22.88-7.42 4.35-7.94 8.63l0 0 0 0C782.17 152.38 778.7 149.19 774.42 148.66zM545.12 272.47L545.12 272.47 545.12 272.47c4.22-.88 7.42-4.35 7.94-8.63l0 0 0 0c.88 4.22 4.35 7.42 8.63 7.94l0 0 0 0c-4.22.88-7.42 4.35-7.94 8.63l0 0 0 0C552.87 276.2 549.4 273 545.12 272.47zM850.4 198.72L850.4 198.72 850.4 198.72c6.5-1.35 11.42-6.69 12.22-13.28l0 0 0 0c1.35 6.5 6.69 11.42 13.28 12.22l0 0 0 0c-6.5 1.35-11.42 6.69-12.22 13.28l0 0 0 0C862.33 204.45 856.99 199.53 850.4 198.72z"></path><path fill="#00093d" d="M911.51 290.68c.12.27-10.48 5.17-23.66 10.95-13.19 5.78-23.97 10.24-24.09 9.97-.12-.27 10.47-5.17 23.66-10.95C900.6 294.87 911.39 290.41 911.51 290.68zM911.51 261.96c-.02.07-1.11-.09-3.07-.44-1.96-.35-4.79-.9-8.28-1.59-6.98-1.39-16.62-3.37-27.24-5.6-10.6-2.26-20.2-4.3-27.21-5.8-3.44-.75-6.24-1.36-8.24-1.79-.93-.2-1.68-.36-2.24-.49-.12-.02-.23-.05-.34-.07-.04-.01-.09-.01-.13-.02-.02-.01-.03.02 0-.04-.01-.08-.01-.02.01-.03.1.07.17.1.16.12-.01.01-.07.02-.22-.03-.01-.02-.04.02-.08-.09.05-.09.1-.06.11-.07.05-.01.1-.01.15-.01.1 0 .22.01.35.02.53.04 1.3.14 2.28.29 1.97.3 4.81.8 8.31 1.46 7 1.31 16.64 3.26 27.28 5.49 10.63 2.23 20.24 4.33 27.18 5.91 3.47.79 6.28 1.45 8.21 1.92C910.46 261.59 911.53 261.89 911.51 261.96zM922.82 236.05c-.22.2-8.27-7.94-17.98-18.19-9.72-10.25-17.42-18.72-17.21-18.93.21-.2 8.27 7.94 17.98 18.19C915.33 227.38 923.04 235.85 922.82 236.05z"></path><path fill="#fff" d="M766.05 310.28L766.05 310.28 766.05 310.28c4.22-.88 7.42-4.35 7.94-8.63l0 0 0 0c.88 4.22 4.35 7.42 8.63 7.94l0 0 0 0c-4.22.88-7.42 4.35-7.94 8.63l0 0 0 0C773.8 314 770.33 310.8 766.05 310.28zM850.4 198.72L850.4 198.72 850.4 198.72c6.5-1.35 11.42-6.69 12.22-13.28l0 0 0 0c1.35 6.5 6.69 11.42 13.28 12.22l0 0 0 0c-6.5 1.35-11.42 6.69-12.22 13.28l0 0 0 0C862.33 204.45 856.99 199.53 850.4 198.72z"></path><g><path fill="#a09d28" d="M655.47,613.97c0.32,8.78,3.69,17.41,9.41,24.08c6.63-14.44,8.69-33.69-2.39-50.11      C657.82,595.76,655.15,605.2,655.47,613.97z"></path><path fill="#00093d" d="M677.64,711.84c-0.03,0.02-0.31-0.54-0.82-1.63c-0.26-0.54-0.56-1.21-0.88-2.03        c-0.33-0.81-0.71-1.74-1.07-2.82c-1.51-4.27-3.27-10.69-3.76-18.83c-0.23-4.06-0.13-8.54,0.49-13.29        c0.65-4.74,1.82-9.76,3.72-14.81c3.74-10.09,10.34-20.38,19.78-28.54c0.33-0.28,0.65-0.57,0.96-0.83l0.59-0.52l0.26,0.75        c1.99,5.83,3.21,11.74,3.82,17.49c0.12,1.44,0.23,2.87,0.35,4.29c0.02,1.42,0.03,2.83,0.05,4.22        c0.06,1.39-0.09,2.77-0.15,4.12c-0.09,1.36-0.11,2.7-0.32,4.02c-0.16,1.32-0.33,2.62-0.49,3.9c-0.21,1.28-0.48,2.52-0.71,3.76        c-0.12,0.62-0.24,1.23-0.36,1.84c-0.14,0.6-0.31,1.19-0.46,1.78c-0.31,1.18-0.62,2.34-0.92,3.48        c-0.34,1.13-0.74,2.22-1.09,3.3c-0.37,1.07-0.68,2.15-1.13,3.15c-0.86,2.01-1.57,3.99-2.52,5.76c-0.9,1.79-1.7,3.52-2.66,5.05        c-0.93,1.54-1.73,3.05-2.67,4.33c-0.91,1.3-1.72,2.54-2.54,3.62c-0.85,1.06-1.63,2.02-2.34,2.89        c-0.36,0.43-0.67,0.85-1.01,1.22c-0.34,0.36-0.66,0.69-0.95,1.01c-0.59,0.62-1.09,1.14-1.5,1.57        c-0.82,0.84-1.26,1.27-1.28,1.25c-0.03-0.03,0.36-0.5,1.13-1.39c0.39-0.45,0.86-0.99,1.42-1.63c0.28-0.32,0.59-0.67,0.91-1.03        c0.32-0.37,0.62-0.8,0.96-1.24c0.68-0.88,1.43-1.86,2.25-2.93c0.79-1.09,1.57-2.34,2.45-3.65c0.92-1.29,1.68-2.79,2.58-4.34        c0.93-1.53,1.71-3.26,2.57-5.04c0.92-1.76,1.59-3.74,2.43-5.73c0.44-0.99,0.73-2.06,1.09-3.13c0.34-1.07,0.72-2.16,1.05-3.27        c0.29-1.13,0.58-2.28,0.88-3.45c0.15-0.59,0.31-1.17,0.44-1.77c0.11-0.6,0.22-1.21,0.34-1.82c0.22-1.22,0.48-2.46,0.68-3.72        c0.15-1.27,0.3-2.56,0.46-3.86c0.19-1.3,0.21-2.63,0.29-3.97c0.05-1.34,0.19-2.7,0.13-4.07c-0.02-1.37-0.04-2.76-0.06-4.16        c-0.12-1.4-0.23-2.81-0.35-4.23c-0.61-5.68-1.83-11.5-3.79-17.24l0.85,0.23c-0.3,0.26-0.62,0.54-0.94,0.82        c-9.29,8.03-15.82,18.14-19.56,28.07c-1.89,4.97-3.08,9.91-3.76,14.59c-0.65,4.69-0.8,9.11-0.61,13.13        c0.38,8.06,2.01,14.45,3.39,18.73c0.33,1.08,0.67,2.02,0.97,2.84c0.28,0.82,0.55,1.51,0.78,2.06        C677.46,711.24,677.68,711.83,677.64,711.84z"></path><path fill="#a09d28" d="M673.2,768.35c-23.35-35.29-66.87-57.26-108.84-51.81c10.16,19.19,26.77,34.9,46.49,43.99       C630.58,769.62,652.01,773.09,673.2,768.35L673.2,768.35z"></path><path fill="#00093d" d="M652.49,715.27c0,0.01-0.09-0.02-0.25-0.08c-0.17-0.07-0.41-0.17-0.71-0.29         c-0.64-0.27-1.57-0.67-2.78-1.19c-1.23-0.5-2.7-1.25-4.44-2.12c-1.76-0.83-3.71-1.95-5.91-3.2         c-4.35-2.56-9.56-5.93-15.16-10.44c-5.6-4.5-11.58-10.13-17.52-16.96c-5.94-6.82-11.87-14.81-17.3-23.96         c-5.53-9.1-10.18-19.54-14.33-30.73c-4.16-11.21-7.62-23.3-10.23-36.05c-1.24-6.39-2.33-12.93-2.85-19.64         c-0.56-6.7-0.8-13.56,0.03-20.46c0.04-0.45,0.08-0.91,0.12-1.32l0.07-0.78l0.71,0.38c6.07,3.24,11.75,7.03,17.04,11.12         c5.28,4.11,10.24,8.47,14.78,13.09c9.12,9.2,16.87,19.05,23.47,28.93c13.2,19.79,21.93,39.54,27.4,56.61         c5.5,17.1,7.75,31.55,8.46,41.54c0.18,2.5,0.33,4.72,0.34,6.65c0.05,1.93,0.1,3.56,0.04,4.88c-0.04,1.31-0.06,2.31-0.08,3         c-0.02,0.33-0.03,0.58-0.04,0.76c-0.01,0.17-0.02,0.26-0.03,0.26c-0.01,0-0.02-0.09-0.02-0.26c0-0.18-0.01-0.43-0.02-0.76         c0-0.69-0.01-1.69-0.02-3c0.02-1.32-0.06-2.94-0.14-4.87c-0.04-1.93-0.23-4.14-0.44-6.63c-0.84-9.95-3.19-24.33-8.76-41.34         c-5.54-16.98-14.31-36.63-27.5-56.3c-6.59-9.82-14.33-19.6-23.4-28.74c-4.51-4.59-9.45-8.92-14.69-12.99         c-5.25-4.06-10.88-7.81-16.89-11.02l0.78-0.4c-0.04,0.41-0.08,0.86-0.12,1.3c-0.81,6.79-0.58,13.6-0.03,20.25         c0.51,6.66,1.59,13.17,2.82,19.53c2.58,12.69,6,24.75,10.12,35.92c4.12,11.16,8.71,21.55,14.17,30.62         c5.37,9.12,11.24,17.09,17.11,23.91c5.87,6.82,11.78,12.47,17.32,16.99c5.54,4.53,10.69,7.94,15,10.55         c2.17,1.27,4.1,2.41,5.84,3.27c1.72,0.9,3.17,1.67,4.38,2.21c1.19,0.56,2.11,0.99,2.73,1.29c0.3,0.15,0.53,0.26,0.69,0.34         C652.42,715.22,652.49,715.26,652.49,715.27z"></path><g><path fill="#00093d" d="M588.7,598.77c0.01,0,0.06,0.07,0.16,0.22c0.1,0.16,0.25,0.39,0.43,0.69c0.38,0.63,0.93,1.55,1.66,2.75         c1.44,2.44,3.56,6.01,6.29,10.62c1.36,2.31,2.87,4.88,4.53,7.69c1.63,2.83,3.39,5.9,5.29,9.2         c3.77,6.61,8.13,14.11,12.77,22.49c2.33,4.18,4.78,8.57,7.33,13.13c2.54,4.57,5.11,9.37,7.81,14.31         c5.43,9.87,11.03,20.53,16.97,31.72c11.75,22.45,24.37,47.29,37.14,73.59c12.72,26.34,24.39,51.65,34.72,74.79         c5.1,11.6,9.98,22.61,14.37,32.99c2.2,5.19,4.37,10.18,6.38,15c2,4.83,3.93,9.47,5.76,13.89c3.71,8.84,6.88,16.9,9.73,23.96         c1.41,3.53,2.73,6.82,3.94,9.85c1.18,3.04,2.25,5.82,3.22,8.31c1.92,4.99,3.41,8.87,4.43,11.52c0.49,1.31,0.87,2.32,1.13,3         c0.12,0.33,0.21,0.59,0.27,0.77c0.06,0.17,0.08,0.26,0.08,0.27c-0.01,0-0.05-0.08-0.13-0.25c-0.08-0.18-0.18-0.43-0.32-0.75         c-0.28-0.68-0.69-1.67-1.23-2.97c-1.06-2.63-2.61-6.48-4.61-11.44c-0.99-2.49-2.1-5.25-3.31-8.28         c-1.24-3.02-2.58-6.29-4.02-9.82c-2.9-7.04-6.13-15.08-9.87-23.89c-1.85-4.42-3.8-9.04-5.82-13.86         c-2.03-4.82-4.22-9.8-6.44-14.98c-4.41-10.36-9.33-21.35-14.45-32.94c-10.38-23.11-22.06-48.4-34.78-74.72         c-12.76-26.29-25.36-51.13-37.05-73.6c-5.91-11.2-11.48-21.87-16.88-31.76c-2.68-4.95-5.24-9.76-7.76-14.33         c-2.53-4.58-4.95-8.97-7.27-13.16c-4.59-8.41-8.9-15.93-12.62-22.56c-1.87-3.31-3.61-6.4-5.21-9.24         c-1.62-2.83-3.11-5.41-4.44-7.73c-2.65-4.65-4.71-8.26-6.12-10.72c-0.69-1.22-1.21-2.16-1.57-2.8         c-0.17-0.31-0.3-0.55-0.39-0.72C588.73,598.86,588.7,598.78,588.7,598.77z"></path><path fill="#00093d" d="M637.02,752.06c0.08-0.14,2.44,1.04,6.26,2.9c3.82,1.87,9.13,4.39,15.08,6.96         c5.95,2.57,11.42,4.71,15.4,6.22c3.98,1.51,6.45,2.42,6.4,2.57c-0.04,0.13-2.6-0.53-6.65-1.86         c-4.05-1.33-9.59-3.37-15.57-5.95c-5.98-2.59-11.25-5.23-15-7.27C639.18,753.59,636.95,752.18,637.02,752.06z"></path></g></g><g><path fill="#e86262" d="M1318.42,829.31l-75.08-106.11c-7.75-10.96-23.73-21.85-37.15-22.07l-463.18-3.41     c-23.25-0.38-42.41,18.16-42.8,41.41l-3.7,223.98c-0.39,23.51,18.55,42.78,42.06,42.8l470.54,0.44     c13.99,0.01,27.07-6.92,34.91-18.5l74.88-110.61C1328.75,862.71,1328.55,843.62,1318.42,829.31z M1254.01,857.12     c-4.18,20.03-23.81,32.87-43.83,28.69c-20.03-4.18-32.87-23.81-28.69-43.83c4.18-20.03,23.81-32.87,43.83-28.69     C1245.35,817.47,1258.19,837.1,1254.01,857.12z"></path><text fill="#fff" font-family="Poppins-ExtraBold" font-size="249.971" transform="rotate(1.146 -49840.43 41218.094)">%</text><path fill="#00093d" d="M1210.85,855.35c-0.01,0,0.02-0.09,0.1-0.26c0.08-0.17,0.19-0.42,0.34-0.74         c0.31-0.66,0.77-1.62,1.37-2.87c0.6-1.27,1.37-2.81,2.31-4.63c0.92-1.83,2.01-3.92,3.29-6.25         c5.05-9.35,12.82-22.67,23.87-38.17c5.53-7.74,11.89-16,19.15-24.52c7.26-8.51,15.38-17.31,24.54-25.93         c4.54-4.35,9.41-8.59,14.46-12.82c5.08-4.2,10.44-8.27,16.02-12.23c5.63-3.91,11.51-7.65,17.66-11.16         c6.16-3.48,12.62-6.65,19.33-9.47c6.71-2.78,13.49-5.28,20.48-6.69c3.49-0.7,7.02-1.13,10.55-1.1         c3.52,0.03,7.05,0.53,10.32,1.78c3.28,1.23,6.21,3.27,8.49,5.84c1.13,1.3,2.1,2.73,2.84,4.26c0.77,1.52,1.35,3.12,1.75,4.75         c1.61,6.53,0.72,13.36-1.76,19.2c-2.45,5.89-6.11,10.96-9.95,15.52c-1.92,2.29-3.9,4.47-5.86,6.59         c-1.94,2.14-3.93,4.18-5.86,6.21c-7.8,8.02-15.45,15.11-22.63,21.35c-14.38,12.46-26.92,21.45-35.74,27.37         c-2.19,1.5-4.19,2.77-5.91,3.87c-1.71,1.12-3.19,2.03-4.39,2.75c-1.19,0.72-2.1,1.27-2.73,1.64c-0.3,0.18-0.54,0.31-0.7,0.41         c-0.16,0.09-0.24,0.13-0.25,0.12c0-0.01,0.07-0.06,0.22-0.17c0.16-0.11,0.38-0.26,0.67-0.45c0.61-0.4,1.5-0.98,2.67-1.73         c1.18-0.75,2.63-1.69,4.33-2.83c1.7-1.13,3.67-2.43,5.85-3.95c8.74-6.02,21.18-15.09,35.47-27.6         c7.13-6.26,14.73-13.37,22.49-21.39c1.92-2.03,3.89-4.07,5.82-6.21c1.95-2.12,3.92-4.29,5.81-6.57         c3.79-4.54,7.38-9.54,9.76-15.29c2.41-5.69,3.24-12.3,1.68-18.58c-0.38-1.56-0.94-3.09-1.68-4.54         c-0.71-1.46-1.63-2.82-2.7-4.04c-2.17-2.44-4.95-4.38-8.08-5.54c-3.13-1.19-6.53-1.68-9.96-1.7         c-3.43-0.02-6.9,0.4-10.33,1.09c-6.87,1.38-13.61,3.87-20.28,6.63c-6.66,2.8-13.08,5.95-19.21,9.41         c-6.12,3.48-11.98,7.21-17.59,11.09c-5.57,3.94-10.91,7.99-15.98,12.16c-5.04,4.21-9.9,8.42-14.43,12.75         c-9.15,8.58-17.27,17.33-24.55,25.79c-7.27,8.47-13.65,16.69-19.21,24.38c-11.1,15.4-18.97,28.64-24.12,37.92         c-1.3,2.31-2.42,4.39-3.37,6.2c-0.97,1.8-1.77,3.33-2.4,4.58c-0.64,1.23-1.13,2.18-1.47,2.83c-0.17,0.31-0.29,0.54-0.39,0.71         C1210.91,855.28,1210.86,855.36,1210.85,855.35z"></path><path fill="#00093d" d="M1252.68,847.79c0.04,0.13-2.19,0.99-5.89,2.12c-3.7,1.12-8.87,2.49-14.68,3.57         c-5.81,1.08-11.14,1.66-15,1.87c-3.86,0.22-6.26,0.14-6.26,0c-0.01-0.16,2.37-0.35,6.2-0.76c3.83-0.41,9.1-1.1,14.86-2.17         c5.77-1.07,10.94-2.31,14.67-3.24C1250.32,848.24,1252.63,847.64,1252.68,847.79z"></path></g><g><path fill="#00093d" d="M1269.25,591.54c0-0.02,0.13,0.15,0.4,0.49c0.28,0.36,0.68,0.88,1.2,1.55c0.54,0.71,1.2,1.57,1.98,2.59        c0.39,0.52,0.81,1.08,1.26,1.68c0.43,0.61,0.82,1.28,1.27,1.98c0.89,1.41,1.87,2.98,2.94,4.69c1.02,1.75,1.98,3.73,3.09,5.81        c1.17,2.06,2.05,4.44,3.14,6.89c1.14,2.43,1.98,5.15,2.97,7.96c0.24,0.7,0.49,1.42,0.74,2.14c0.23,0.73,0.41,1.48,0.61,2.23        c0.4,1.51,0.82,3.05,1.24,4.62c0.11,0.39,0.21,0.79,0.32,1.18c0.09,0.4,0.16,0.81,0.24,1.21c0.16,0.81,0.32,1.64,0.48,2.47        c0.31,1.66,0.69,3.34,0.95,5.08c0.22,1.74,0.44,3.51,0.67,5.31c0.1,0.9,0.26,1.8,0.31,2.72c0.05,0.92,0.11,1.84,0.16,2.78        c0.09,1.87,0.26,3.76,0.29,5.68c-0.01,1.92-0.03,3.87-0.04,5.84c0.05,1.98-0.2,3.96-0.32,5.98c-0.16,2.01-0.24,4.06-0.59,6.1        c-0.29,2.05-0.58,4.11-0.87,6.2c-0.43,2.06-0.86,4.15-1.3,6.25c-1.95,8.37-4.78,16.85-8.64,25.12l-0.34,0.73l-0.53-0.59        c-0.26-0.28-0.54-0.59-0.82-0.9c-3.16-3.35-5.97-6.94-8.5-10.64c-2.52-3.7-4.79-7.51-6.67-11.42c-1.9-3.9-3.55-7.83-4.9-11.78        c-1.32-3.96-2.45-7.88-3.3-11.78c-0.83-3.89-1.52-7.72-1.95-11.46c-0.27-1.87-0.38-3.73-0.55-5.55        c-0.1-1.83-0.2-3.63-0.23-5.4c-0.1-7.08,0.51-13.68,1.54-19.6c1.03-5.93,2.48-11.19,4.02-15.71        c1.56-4.52,3.14-8.32,4.63-11.33c0.7-1.53,1.42-2.84,2.03-3.98c0.31-0.57,0.59-1.09,0.85-1.58c0.29-0.48,0.55-0.91,0.78-1.3        c0.46-0.74,0.81-1.31,1.06-1.71C1269.13,591.71,1269.25,591.53,1269.25,591.54s-0.11,0.24-0.33,0.65        c-0.22,0.41-0.53,1-0.94,1.77c-0.21,0.38-0.44,0.8-0.69,1.27c-0.24,0.49-0.51,1.02-0.8,1.59c-0.58,1.15-1.26,2.47-1.94,4.01        c-2.78,6.06-6.31,15.19-8.29,26.99c-0.97,5.89-1.53,12.44-1.4,19.46c0.03,1.75,0.14,3.54,0.25,5.35        c0.18,1.81,0.3,3.64,0.57,5.5c0.44,3.72,1.14,7.51,1.98,11.37c0.85,3.86,1.98,7.74,3.3,11.66c1.34,3.91,2.99,7.8,4.87,11.65        c1.87,3.86,4.12,7.62,6.61,11.28c2.5,3.66,5.29,7.2,8.41,10.51c0.28,0.3,0.55,0.61,0.81,0.89l-0.87,0.14        c3.83-8.2,6.64-16.6,8.59-24.89c0.44-2.08,0.87-4.15,1.3-6.2c0.3-2.07,0.59-4.12,0.88-6.15c0.35-2.02,0.43-4.05,0.6-6.05        c0.13-2,0.38-3.97,0.34-5.93c0.02-1.96,0.04-3.89,0.07-5.8c-0.02-1.91-0.18-3.78-0.26-5.63c-0.05-0.93-0.1-1.84-0.15-2.76        c-0.05-0.91-0.2-1.81-0.3-2.7c-0.22-1.79-0.43-3.54-0.64-5.27c-0.24-1.72-0.62-3.39-0.91-5.05c-0.16-0.82-0.31-1.64-0.46-2.45        c-0.08-0.4-0.15-0.81-0.23-1.21c-0.1-0.39-0.21-0.79-0.31-1.18c-0.41-1.56-0.81-3.09-1.2-4.59c-0.2-0.75-0.37-1.49-0.59-2.22        c-0.24-0.72-0.48-1.43-0.72-2.13c-0.96-2.8-1.77-5.5-2.88-7.93c-1.06-2.44-1.91-4.82-3.05-6.88c-1.08-2.09-2.02-4.07-3-5.83        c-1.04-1.72-1.99-3.3-2.85-4.72c-0.43-0.7-0.82-1.39-1.22-1.99c-0.42-0.59-0.81-1.14-1.17-1.65        c-0.72-1.03-1.33-1.91-1.83-2.63c-0.5-0.72-0.88-1.27-1.15-1.65C1269.39,591.77,1269.25,591.56,1269.25,591.54z"></path><path fill="#a09d28" d="M1423.52,493.12c-32.97,14.05-66.51,45.16-83.99,75.87c-17.48,30.71-26,64.85-20.82,99.63      C1379.91,635.26,1427.28,561.5,1423.52,493.12z"></path><path fill="#00093d" d="M1387.08,550.13c0.02,0.01-0.09,0.25-0.32,0.7c-0.24,0.47-0.59,1.14-1.04,2.01        c-0.94,1.77-2.32,4.35-4.08,7.68c-1.78,3.33-3.97,7.4-6.56,12.09c-2.59,4.7-5.51,10.06-8.82,15.94        c-6.57,11.79-14.54,25.75-23.54,41.17c-9.03,15.4-19.09,32.25-29.88,49.8c-10.82,17.54-21.34,34.11-31.03,49.11        c-9.72,14.97-18.6,28.38-26.18,39.55c-3.76,5.61-7.23,10.63-10.27,15.05c-3.03,4.43-5.67,8.21-7.84,11.3        c-2.17,3.07-3.86,5.46-5.02,7.1c-0.58,0.8-1.02,1.41-1.33,1.83c-0.3,0.41-0.47,0.61-0.48,0.6s0.12-0.24,0.39-0.67        c0.29-0.44,0.7-1.07,1.24-1.89c1.12-1.66,2.75-4.09,4.85-7.21c2.11-3.13,4.7-6.96,7.69-11.4c2.98-4.45,6.41-9.5,10.13-15.14        c7.49-11.23,16.3-24.67,25.98-39.67c9.64-15.02,20.13-31.6,30.95-49.13c10.79-17.54,20.88-34.37,29.94-49.73        c9.04-15.39,17.08-29.3,23.73-41.05c3.36-5.85,6.32-11.19,8.96-15.86c2.62-4.67,4.87-8.7,6.72-12        c1.84-3.28,3.28-5.83,4.26-7.58c0.49-0.85,0.87-1.5,1.13-1.96C1386.92,550.34,1387.06,550.12,1387.08,550.13z"></path><path fill="#00093d" d="M1272.25,643.13c0.07,0,0.21,1.15,0.39,3.25c0.22,2.14,0.53,5.15,0.91,8.85        c0.82,7.46,2.09,17.76,3.61,29.12c1.54,11.36,3.03,21.63,4.21,29.05c0.61,3.67,1.1,6.65,1.45,8.77        c0.38,2.06,0.56,3.21,0.48,3.23s-0.39-1.1-0.89-3.15c-0.48-2.05-1.1-5.03-1.79-8.73c-1.37-7.4-2.99-17.66-4.52-29.03        c-1.52-11.37-2.67-21.7-3.3-29.19c-0.31-3.75-0.49-6.79-0.57-8.89C1272.17,644.3,1272.17,643.13,1272.25,643.13z"></path><path fill="#a09d28" d="M1344.92,670.61c-13.37,5.46-24.79,15.57-31.85,28.17c26.06,2.05,57.71-10.18,74.31-30.37      C1373.52,664.35,1358.29,665.14,1344.92,670.61z"></path></g><g><path fill="#00093d" d="M929.2,530.87c-0.04,0-0.07-0.45-0.11-1.31c-0.02-0.89-0.06-2.16-0.1-3.76c-0.04-3.3-0.1-8.02-0.17-13.84        c-0.01-1.46-0.02-2.99-0.03-4.59c-0.01-0.8-0.01-1.61-0.02-2.44c-0.04-0.82-0.08-1.65-0.12-2.49        c-0.29-3.37-1.2-6.94-2.96-10.3c-0.45-0.83-0.89-1.69-1.46-2.48c-0.28-0.4-0.52-0.82-0.83-1.21        c-0.31-0.38-0.62-0.76-0.93-1.15c-0.3-0.4-0.64-0.76-1-1.11c-0.35-0.36-0.7-0.71-1.06-1.07c-0.79-0.63-1.51-1.36-2.39-1.9        c-1.65-1.23-3.57-2.11-5.55-2.82c-2.01-0.68-4.15-0.96-6.32-1.04c-2.17,0.07-4.31,0.35-6.32,1.03        c-1.99,0.71-3.91,1.59-5.56,2.82c-0.88,0.54-1.6,1.27-2.39,1.9c-0.35,0.36-0.71,0.72-1.06,1.07c-0.36,0.35-0.7,0.71-1,1.11        c-0.31,0.38-0.62,0.77-0.93,1.15c-0.3,0.39-0.55,0.81-0.83,1.21c-0.57,0.79-1.01,1.65-1.46,2.48        c-1.76,3.37-2.67,6.93-2.96,10.3c-0.04,0.85-0.08,1.68-0.12,2.49c-0.01,0.83-0.01,1.64-0.02,2.44        c-0.01,1.59-0.02,3.12-0.04,4.59c-0.07,5.82-0.13,10.54-0.17,13.84c-0.04,1.61-0.08,2.87-0.1,3.76        c-0.04,0.86-0.07,1.31-0.11,1.31c-0.04,0-0.07-0.45-0.11-1.31c-0.02-0.89-0.06-2.15-0.1-3.76c-0.04-3.3-0.1-8.02-0.17-13.84        c-0.01-1.46-0.02-2.99-0.03-4.59c-0.01-0.8-0.01-1.61-0.02-2.44c0.03-0.84,0.06-1.7,0.1-2.57c0.27-3.47,1.17-7.17,2.97-10.68        c0.46-0.87,0.91-1.76,1.5-2.58c0.28-0.42,0.54-0.86,0.85-1.26c0.32-0.4,0.64-0.8,0.96-1.2c0.31-0.41,0.67-0.79,1.04-1.16        c0.36-0.37,0.73-0.75,1.1-1.12c0.82-0.66,1.57-1.43,2.49-2c1.73-1.29,3.74-2.23,5.83-2.97c2.11-0.72,4.37-1.02,6.66-1.09        c2.28,0.07,4.54,0.37,6.66,1.1c2.09,0.75,4.1,1.68,5.82,2.97c0.92,0.57,1.67,1.34,2.49,2c0.37,0.38,0.73,0.75,1.1,1.12        c0.37,0.37,0.73,0.75,1.03,1.16c0.32,0.4,0.64,0.8,0.96,1.2c0.31,0.4,0.57,0.84,0.85,1.26c0.59,0.82,1.03,1.72,1.5,2.58        c1.8,3.5,2.7,7.2,2.96,10.68c0.03,0.87,0.06,1.73,0.1,2.57c-0.01,0.83-0.01,1.64-0.02,2.44c-0.01,1.59-0.02,3.12-0.04,4.59        c-0.07,5.82-0.13,10.54-0.17,13.84c-0.04,1.61-0.08,2.87-0.1,3.76C929.27,530.42,929.24,530.87,929.2,530.87z"></path><path fill="#00093d" d="M900.86,530.87c-0.04,0-0.07-0.45-0.11-1.31c-0.02-0.89-0.06-2.16-0.1-3.76        c-0.04-3.3-0.1-8.02-0.17-13.84c-0.01-1.46-0.02-2.99-0.03-4.59c0-0.8-0.01-1.61-0.02-2.44c-0.04-0.82-0.08-1.65-0.12-2.49        c-0.29-3.37-1.2-6.94-2.96-10.3c-0.45-0.83-0.89-1.69-1.46-2.48c-0.28-0.4-0.52-0.82-0.83-1.21        c-0.31-0.38-0.62-0.76-0.93-1.15c-0.3-0.4-0.64-0.76-1-1.11c-0.35-0.36-0.7-0.71-1.06-1.07c-0.79-0.63-1.51-1.36-2.39-1.9        c-1.65-1.23-3.57-2.11-5.55-2.82c-2.01-0.68-4.15-0.96-6.32-1.04c-2.17,0.07-4.31,0.35-6.32,1.03        c-1.99,0.71-3.91,1.59-5.56,2.82c-0.88,0.54-1.6,1.27-2.39,1.9c-0.35,0.36-0.71,0.72-1.06,1.07c-0.36,0.35-0.7,0.71-1,1.11        c-0.31,0.38-0.62,0.77-0.93,1.15c-0.3,0.39-0.55,0.81-0.83,1.21c-0.57,0.79-1.01,1.65-1.46,2.48        c-1.76,3.37-2.67,6.93-2.96,10.3c-0.04,0.85-0.08,1.68-0.12,2.49c-0.01,0.83-0.01,1.64-0.02,2.44        c-0.01,1.59-0.02,3.12-0.04,4.59c-0.07,5.82-0.13,10.54-0.17,13.84c-0.04,1.61-0.08,2.87-0.1,3.76        c-0.04,0.86-0.07,1.31-0.11,1.31c-0.04,0-0.07-0.45-0.11-1.31c-0.02-0.89-0.06-2.15-0.1-3.76c-0.04-3.3-0.1-8.02-0.17-13.84        c-0.01-1.46-0.02-2.99-0.03-4.59c-0.01-0.8-0.01-1.61-0.02-2.44c0.03-0.84,0.06-1.7,0.1-2.57c0.27-3.47,1.17-7.17,2.97-10.68        c0.46-0.87,0.91-1.76,1.5-2.58c0.28-0.42,0.54-0.86,0.85-1.26c0.32-0.4,0.64-0.8,0.96-1.2c0.31-0.41,0.67-0.79,1.04-1.16        c0.36-0.37,0.73-0.75,1.1-1.12c0.82-0.66,1.57-1.43,2.49-2c1.72-1.29,3.74-2.23,5.83-2.97c2.11-0.72,4.37-1.02,6.66-1.09        c2.28,0.07,4.54,0.37,6.66,1.1c2.09,0.75,4.1,1.68,5.82,2.97c0.92,0.57,1.67,1.34,2.49,2c0.37,0.38,0.73,0.75,1.1,1.12        c0.37,0.37,0.73,0.75,1.03,1.16c0.32,0.4,0.64,0.8,0.96,1.2c0.31,0.4,0.57,0.84,0.85,1.26c0.59,0.82,1.03,1.72,1.5,2.58        c1.8,3.5,2.7,7.2,2.96,10.68c0.03,0.87,0.06,1.73,0.1,2.57c-0.01,0.83-0.01,1.64-0.02,2.44c-0.01,1.59-0.02,3.12-0.04,4.59        c-0.07,5.82-0.13,10.54-0.17,13.84c-0.04,1.61-0.08,2.87-0.1,3.76C900.93,530.41,900.89,530.87,900.86,530.87z"></path><polygon fill="#a8a526" points="956.68 673.1 822.28 673.07 836.15 513.95 943.87 513.98"></polygon><path fill="#00093d" d="M870.39,514.37c0.02,0,0.04,0.2,0.06,0.6c0.01,0.42,0.03,1.01,0.06,1.77c0.03,1.58,0.06,3.87,0.11,6.81        c0.05,5.94,0.12,14.49,0.21,25.06c0.07,21.18,0.17,50.4,0.28,82.68c0.01,14.74,0.02,28.84,0.02,41.77l0,1.35l-0.88-1.02        c-9.33-10.85-17.74-20.62-24.82-28.86l0.6-0.01c-7.28,8.83-13.18,15.98-17.28,20.94c-2.05,2.45-3.65,4.35-4.74,5.66        c-0.54,0.63-0.96,1.11-1.26,1.45c-0.29,0.32-0.44,0.48-0.46,0.47c-0.01-0.01,0.11-0.2,0.37-0.54        c0.28-0.36,0.66-0.87,1.17-1.52c1.06-1.34,2.6-3.29,4.58-5.79c4.03-5.01,9.84-12.24,17.01-21.16l0.29-0.36l0.31,0.35        c7.13,8.2,15.6,17.92,24.99,28.71l-0.88,0.33c-0.03-12.93-0.06-27.03-0.1-41.77c0.02-32.28,0.03-61.51,0.04-82.68        c0.06-10.57,0.1-19.13,0.13-25.06c0.04-2.94,0.07-5.24,0.09-6.81c0.02-0.77,0.04-1.35,0.05-1.77        C870.35,514.57,870.37,514.37,870.39,514.37z"></path></g><g><path fill="#00093d" d="M842.15,587.96c-0.04,0-0.07-0.45-0.11-1.31c-0.02-0.89-0.06-2.16-0.1-3.76        c-0.04-3.3-0.1-8.02-0.17-13.84c-0.01-1.46-0.02-2.99-0.03-4.59c0-0.8-0.01-1.61-0.02-2.44c-0.04-0.82-0.08-1.65-0.12-2.49        c-0.29-3.37-1.2-6.94-2.96-10.3c-0.45-0.83-0.89-1.69-1.46-2.48c-0.28-0.4-0.52-0.82-0.83-1.21        c-0.31-0.38-0.62-0.76-0.93-1.15c-0.3-0.4-0.64-0.76-1-1.11c-0.35-0.36-0.7-0.71-1.06-1.07c-0.79-0.63-1.51-1.36-2.39-1.9        c-1.65-1.23-3.57-2.11-5.55-2.82c-2.01-0.68-4.15-0.96-6.32-1.04c-2.17,0.07-4.31,0.35-6.32,1.03        c-1.99,0.71-3.91,1.59-5.56,2.82c-0.88,0.54-1.6,1.27-2.39,1.9c-0.35,0.36-0.71,0.72-1.06,1.07c-0.36,0.35-0.7,0.71-1,1.11        c-0.31,0.38-0.62,0.77-0.93,1.15c-0.3,0.39-0.55,0.81-0.83,1.21c-0.57,0.79-1.01,1.65-1.46,2.48        c-1.76,3.37-2.67,6.93-2.96,10.3c-0.04,0.85-0.08,1.68-0.12,2.49c-0.01,0.83-0.01,1.64-0.02,2.44        c-0.01,1.59-0.02,3.12-0.04,4.59c-0.07,5.82-0.13,10.54-0.17,13.84c-0.04,1.61-0.08,2.87-0.1,3.76        c-0.04,0.86-0.07,1.31-0.11,1.31s-0.07-0.45-0.11-1.31c-0.02-0.89-0.06-2.15-0.1-3.76c-0.04-3.3-0.1-8.02-0.17-13.84        c-0.01-1.46-0.02-2.99-0.03-4.59c0-0.8-0.01-1.61-0.02-2.44c0.03-0.84,0.06-1.7,0.1-2.57c0.27-3.47,1.17-7.17,2.97-10.68        c0.46-0.87,0.91-1.76,1.5-2.58c0.28-0.42,0.54-0.86,0.85-1.26c0.32-0.4,0.64-0.8,0.96-1.2c0.31-0.41,0.67-0.79,1.04-1.16        c0.36-0.37,0.73-0.75,1.1-1.12c0.82-0.66,1.57-1.43,2.49-2c1.72-1.29,3.74-2.23,5.83-2.97c2.11-0.72,4.37-1.02,6.66-1.09        c2.28,0.07,4.54,0.37,6.66,1.1c2.09,0.75,4.1,1.68,5.82,2.97c0.92,0.57,1.67,1.34,2.49,2c0.37,0.38,0.73,0.75,1.1,1.12        c0.37,0.37,0.73,0.75,1.03,1.16c0.32,0.4,0.64,0.8,0.96,1.2c0.31,0.4,0.57,0.84,0.85,1.26c0.59,0.82,1.03,1.72,1.5,2.58        c1.8,3.5,2.7,7.2,2.96,10.68c0.03,0.87,0.06,1.73,0.1,2.57c-0.01,0.83-0.01,1.64-0.02,2.44c-0.01,1.59-0.02,3.12-0.04,4.59        c-0.07,5.82-0.13,10.54-0.17,13.84c-0.04,1.61-0.08,2.87-0.1,3.76C842.22,587.51,842.18,587.96,842.15,587.96z"></path><path fill="#00093d" d="M813.8,587.96c-0.04,0-0.07-0.45-0.11-1.31c-0.02-0.89-0.06-2.16-0.1-3.76c-0.04-3.3-0.1-8.02-0.17-13.84        c-0.01-1.46-0.02-2.99-0.03-4.59c-0.01-0.8-0.01-1.61-0.02-2.44c-0.04-0.82-0.08-1.65-0.12-2.49        c-0.29-3.37-1.2-6.94-2.96-10.3c-0.45-0.83-0.89-1.69-1.46-2.48c-0.28-0.4-0.52-0.82-0.83-1.21        c-0.31-0.38-0.62-0.76-0.93-1.15c-0.3-0.4-0.64-0.76-1-1.11c-0.35-0.36-0.7-0.71-1.06-1.07c-0.79-0.63-1.51-1.36-2.39-1.9        c-1.65-1.23-3.57-2.11-5.55-2.82c-2.01-0.68-4.15-0.96-6.32-1.04c-2.17,0.07-4.31,0.35-6.32,1.03        c-1.99,0.71-3.91,1.59-5.56,2.82c-0.88,0.54-1.6,1.27-2.39,1.9c-0.35,0.36-0.71,0.72-1.06,1.07c-0.36,0.35-0.7,0.71-1,1.11        c-0.31,0.38-0.62,0.77-0.93,1.15c-0.3,0.39-0.55,0.81-0.83,1.21c-0.57,0.79-1,1.65-1.46,2.48c-1.76,3.37-2.67,6.93-2.96,10.3        c-0.04,0.85-0.08,1.68-0.12,2.49c-0.01,0.83-0.01,1.64-0.02,2.44c-0.01,1.59-0.02,3.12-0.04,4.59        c-0.07,5.82-0.13,10.54-0.17,13.84c-0.04,1.61-0.08,2.87-0.1,3.76c-0.04,0.86-0.07,1.31-0.11,1.31        c-0.04,0-0.07-0.45-0.11-1.31c-0.02-0.89-0.06-2.15-0.1-3.76c-0.04-3.3-0.1-8.02-0.17-13.84c-0.01-1.46-0.02-2.99-0.03-4.59        c-0.01-0.8-0.01-1.61-0.02-2.44c0.03-0.84,0.06-1.7,0.1-2.57c0.27-3.47,1.17-7.17,2.97-10.68c0.46-0.87,0.91-1.76,1.5-2.58        c0.28-0.42,0.54-0.86,0.85-1.26c0.32-0.4,0.64-0.8,0.96-1.2c0.31-0.41,0.67-0.79,1.04-1.16c0.36-0.37,0.73-0.75,1.1-1.12        c0.82-0.66,1.57-1.43,2.49-2c1.72-1.29,3.74-2.23,5.83-2.97c2.11-0.72,4.37-1.02,6.66-1.09c2.28,0.07,4.54,0.37,6.66,1.1        c2.09,0.75,4.1,1.68,5.82,2.97c0.92,0.57,1.67,1.34,2.49,2c0.37,0.38,0.73,0.75,1.1,1.12c0.37,0.37,0.73,0.75,1.03,1.16        c0.32,0.4,0.64,0.8,0.96,1.2c0.31,0.4,0.57,0.84,0.85,1.26c0.59,0.82,1.03,1.72,1.5,2.58c1.8,3.5,2.7,7.2,2.96,10.68        c0.03,0.87,0.06,1.73,0.1,2.57c-0.01,0.83-0.01,1.64-0.02,2.44c-0.01,1.59-0.02,3.12-0.04,4.59        c-0.07,5.82-0.13,10.54-0.17,13.84c-0.04,1.61-0.08,2.87-0.1,3.76C813.88,587.5,813.84,587.96,813.8,587.96z"></path><polygon fill="#ffbf61" points="869.63 697.71 735.23 697.68 749.1 571.04 856.81 571.07"></polygon><path fill="#00093d" d="M783.33,571.37c0.02,0,0.04,0.17,0.06,0.5c0.01,0.35,0.03,0.84,0.06,1.46c0.03,1.31,0.06,3.2,0.11,5.62        c0.05,4.9,0.12,11.96,0.21,20.67c0.13,17.46,0.23,41.57,0.28,68.2c0.01,10.45,0.02,20.5,0.03,29.86l0,1.17l-0.86-0.79        c-9.33-8.64-17.76-16.44-24.83-22.99l0.55-0.01c-7.26,6.99-13.16,12.67-17.26,16.62c-2.05,1.93-3.64,3.44-4.74,4.49        c-0.54,0.49-0.96,0.87-1.26,1.15c-0.29,0.25-0.44,0.38-0.46,0.36s0.11-0.17,0.37-0.45c0.28-0.29,0.67-0.7,1.18-1.23        c1.07-1.08,2.61-2.64,4.59-4.64c4.04-4.01,9.85-9.77,17.01-16.87l0.27-0.27l0.28,0.26c7.11,6.5,15.59,14.25,24.98,22.83        l-0.86,0.38c-0.03-9.36-0.05-19.42-0.08-29.86c-0.05-26.63-0.03-50.75,0.03-68.2c0.06-8.71,0.1-15.77,0.13-20.67        c0.04-2.42,0.07-4.31,0.09-5.62c0.02-0.63,0.04-1.11,0.05-1.46C783.3,571.54,783.32,571.37,783.33,571.37z"></path></g><g><path fill="#00093d" d="M1446.56,842.98c-0.04,0-0.07-0.45-0.11-1.31c-0.02-0.89-0.06-2.16-0.1-3.76        c-0.04-3.3-0.1-8.02-0.17-13.84c-0.01-1.46-0.02-2.99-0.03-4.59c-0.01-0.8-0.01-1.61-0.02-2.44        c-0.04-0.82-0.08-1.65-0.12-2.49c-0.29-3.37-1.2-6.94-2.96-10.3c-0.45-0.83-0.89-1.69-1.46-2.48        c-0.28-0.4-0.52-0.82-0.83-1.21c-0.31-0.38-0.62-0.76-0.93-1.15c-0.3-0.4-0.64-0.76-1-1.11c-0.35-0.36-0.7-0.71-1.06-1.07        c-0.79-0.63-1.51-1.36-2.39-1.9c-1.65-1.23-3.57-2.11-5.55-2.82c-2.01-0.68-4.15-0.96-6.32-1.04        c-2.17,0.07-4.31,0.35-6.32,1.03c-1.99,0.71-3.91,1.59-5.56,2.82c-0.88,0.54-1.6,1.27-2.39,1.9        c-0.35,0.36-0.71,0.72-1.06,1.07c-0.36,0.35-0.7,0.71-1,1.11c-0.31,0.38-0.62,0.77-0.93,1.15c-0.3,0.39-0.55,0.81-0.83,1.21        c-0.57,0.79-1,1.65-1.46,2.48c-1.76,3.37-2.67,6.93-2.96,10.3c-0.04,0.85-0.08,1.68-0.12,2.49c-0.01,0.83-0.01,1.64-0.02,2.44        c-0.01,1.59-0.02,3.12-0.04,4.59c-0.07,5.82-0.13,10.54-0.17,13.84c-0.04,1.61-0.08,2.87-0.1,3.76        c-0.04,0.86-0.07,1.31-0.11,1.31c-0.04,0-0.07-0.45-0.11-1.31c-0.02-0.89-0.06-2.15-0.1-3.76c-0.04-3.3-0.1-8.02-0.17-13.84        c-0.01-1.46-0.02-2.99-0.03-4.59c-0.01-0.8-0.01-1.61-0.02-2.44c0.03-0.84,0.06-1.7,0.1-2.57c0.27-3.47,1.17-7.17,2.97-10.68        c0.46-0.87,0.91-1.76,1.5-2.58c0.28-0.42,0.54-0.86,0.85-1.26c0.32-0.4,0.64-0.8,0.96-1.2c0.31-0.41,0.67-0.79,1.04-1.16        c0.36-0.37,0.73-0.75,1.1-1.12c0.82-0.66,1.57-1.43,2.49-2c1.73-1.29,3.74-2.23,5.83-2.97c2.11-0.72,4.37-1.02,6.66-1.09        c2.28,0.07,4.54,0.37,6.66,1.1c2.09,0.75,4.1,1.68,5.82,2.97c0.92,0.57,1.67,1.34,2.49,2c0.37,0.38,0.73,0.75,1.1,1.12        c0.37,0.37,0.73,0.75,1.03,1.16c0.32,0.4,0.64,0.8,0.96,1.2c0.31,0.4,0.57,0.84,0.85,1.26c0.59,0.82,1.03,1.72,1.5,2.58        c1.8,3.5,2.7,7.2,2.96,10.68c0.03,0.87,0.06,1.73,0.1,2.57c-0.01,0.83-0.01,1.64-0.02,2.44c-0.01,1.59-0.02,3.12-0.04,4.59        c-0.07,5.82-0.13,10.54-0.17,13.84c-0.04,1.61-0.08,2.87-0.1,3.76C1446.64,842.52,1446.6,842.98,1446.56,842.98z"></path><path fill="#00093d" d="M1418.22,842.97c-0.04,0-0.07-0.45-0.11-1.31c-0.02-0.89-0.06-2.16-0.1-3.76        c-0.04-3.3-0.1-8.02-0.17-13.84c-0.01-1.46-0.02-2.99-0.03-4.59c-0.01-0.8-0.01-1.61-0.02-2.44        c-0.04-0.82-0.08-1.65-0.12-2.49c-0.29-3.37-1.2-6.94-2.96-10.3c-0.45-0.83-0.89-1.69-1.46-2.48        c-0.28-0.4-0.52-0.82-0.83-1.21c-0.31-0.38-0.62-0.76-0.93-1.15c-0.3-0.4-0.64-0.76-1-1.11c-0.35-0.36-0.7-0.71-1.06-1.07        c-0.79-0.63-1.51-1.36-2.39-1.9c-1.65-1.23-3.57-2.11-5.55-2.82c-2.01-0.68-4.15-0.96-6.32-1.04        c-2.17,0.07-4.31,0.35-6.32,1.03c-1.99,0.71-3.91,1.59-5.56,2.82c-0.88,0.54-1.6,1.27-2.39,1.9        c-0.35,0.36-0.71,0.72-1.06,1.07c-0.36,0.35-0.7,0.71-1,1.11c-0.31,0.38-0.62,0.77-0.93,1.15c-0.3,0.39-0.55,0.81-0.83,1.21        c-0.57,0.79-1,1.65-1.46,2.48c-1.76,3.37-2.67,6.93-2.96,10.3c-0.04,0.85-0.08,1.68-0.12,2.49c-0.01,0.83-0.01,1.64-0.02,2.44        c-0.01,1.59-0.02,3.12-0.04,4.59c-0.07,5.82-0.13,10.54-0.17,13.84c-0.04,1.61-0.08,2.87-0.1,3.76        c-0.04,0.86-0.07,1.31-0.11,1.31c-0.04,0-0.07-0.45-0.11-1.31c-0.02-0.89-0.06-2.15-0.1-3.76c-0.04-3.3-0.1-8.02-0.17-13.84        c-0.01-1.46-0.02-2.99-0.03-4.59c-0.01-0.8-0.01-1.61-0.02-2.44c0.03-0.84,0.06-1.7,0.1-2.57c0.27-3.47,1.17-7.17,2.97-10.68        c0.46-0.87,0.91-1.76,1.5-2.58c0.28-0.42,0.54-0.86,0.85-1.26c0.32-0.4,0.64-0.8,0.96-1.2c0.31-0.41,0.67-0.79,1.04-1.16        c0.36-0.37,0.73-0.75,1.1-1.12c0.82-0.66,1.57-1.43,2.49-2c1.72-1.29,3.74-2.23,5.83-2.97c2.11-0.72,4.37-1.02,6.66-1.09        c2.28,0.07,4.54,0.37,6.66,1.1c2.09,0.75,4.1,1.68,5.82,2.97c0.92,0.57,1.67,1.34,2.49,2c0.37,0.38,0.73,0.75,1.1,1.12        c0.37,0.37,0.73,0.75,1.03,1.16c0.32,0.4,0.64,0.8,0.96,1.2c0.31,0.4,0.57,0.84,0.85,1.26c0.59,0.82,1.03,1.72,1.5,2.58        c1.8,3.5,2.7,7.2,2.96,10.68c0.03,0.87,0.06,1.73,0.1,2.57c-0.01,0.83-0.01,1.64-0.02,2.44c-0.01,1.59-0.02,3.12-0.04,4.59        c-0.07,5.82-0.13,10.54-0.17,13.84c-0.04,1.61-0.08,2.87-0.1,3.76C1418.29,842.52,1418.26,842.97,1418.22,842.97z"></path><polygon fill="#ffbf61" points="1476.55 1006.34 1342.15 1006.31 1356.02 824.12 1463.74 824.14"></polygon><path fill="#00093d" d="M1390.26,824.59c0.02,0,0.04,0.23,0.06,0.68c0.01,0.47,0.03,1.13,0.06,2c0.03,1.77,0.06,4.36,0.11,7.68        c0.05,6.68,0.12,16.33,0.21,28.23c0.07,23.85,0.17,56.78,0.27,93.15c0.01,17.71,0.01,34.6,0.02,50l0,1.49l-0.89-1.19        c-9.31-12.39-17.72-23.58-24.82-33.03l0.62-0.01c-7.29,10.13-13.2,18.33-17.29,24.01c-2.05,2.81-3.65,5-4.75,6.5        c-0.54,0.73-0.96,1.28-1.26,1.67c-0.29,0.37-0.44,0.56-0.46,0.55c-0.02-0.01,0.11-0.22,0.37-0.61        c0.27-0.41,0.66-0.98,1.17-1.74c1.06-1.53,2.6-3.75,4.58-6.61c4.02-5.73,9.83-14,17-24.21l0.3-0.43l0.32,0.42        c7.15,9.41,15.61,20.55,24.99,32.89l-0.89,0.3c-0.03-15.4-0.07-32.29-0.1-50c0.02-36.37,0.03-69.29,0.04-93.15        c0.06-11.91,0.1-21.55,0.14-28.23c0.04-3.32,0.07-5.9,0.09-7.68c0.02-0.87,0.04-1.53,0.05-2        C1390.22,824.82,1390.24,824.59,1390.26,824.59z"></path></g><g><path fill="#00093d" d="M1355.71,909.05c-0.04,0-0.07-0.45-0.11-1.31c-0.02-0.89-0.06-2.16-0.1-3.76        c-0.04-3.3-0.1-8.02-0.17-13.84c-0.01-1.46-0.02-2.99-0.03-4.59c0-0.8-0.01-1.61-0.02-2.44c-0.04-0.82-0.08-1.65-0.12-2.49        c-0.29-3.37-1.2-6.94-2.96-10.3c-0.45-0.83-0.89-1.69-1.46-2.48c-0.28-0.4-0.52-0.82-0.83-1.21        c-0.31-0.38-0.62-0.76-0.93-1.15c-0.3-0.4-0.64-0.76-1-1.11c-0.35-0.36-0.7-0.71-1.06-1.07c-0.79-0.63-1.51-1.36-2.39-1.9        c-1.65-1.23-3.57-2.11-5.55-2.82c-2.01-0.68-4.15-0.96-6.32-1.04c-2.17,0.07-4.31,0.35-6.32,1.03        c-1.99,0.71-3.91,1.59-5.56,2.82c-0.88,0.54-1.6,1.27-2.39,1.9c-0.35,0.36-0.71,0.72-1.06,1.07c-0.36,0.35-0.7,0.71-1,1.11        c-0.31,0.38-0.62,0.77-0.93,1.15c-0.3,0.39-0.55,0.81-0.83,1.21c-0.57,0.79-1,1.65-1.46,2.48c-1.76,3.37-2.67,6.93-2.96,10.3        c-0.04,0.85-0.08,1.68-0.12,2.49c-0.01,0.83-0.01,1.64-0.02,2.44c-0.01,1.59-0.02,3.12-0.04,4.59        c-0.07,5.82-0.13,10.54-0.17,13.84c-0.04,1.61-0.08,2.87-0.1,3.76c-0.04,0.86-0.07,1.31-0.11,1.31        c-0.04,0-0.07-0.45-0.11-1.31c-0.02-0.89-0.06-2.15-0.1-3.76c-0.04-3.3-0.1-8.02-0.17-13.84c-0.01-1.46-0.02-2.99-0.03-4.59        c0-0.8-0.01-1.61-0.02-2.44c0.03-0.84,0.06-1.7,0.1-2.57c0.27-3.47,1.17-7.17,2.97-10.68c0.46-0.87,0.91-1.76,1.5-2.58        c0.28-0.42,0.54-0.86,0.85-1.26c0.32-0.4,0.64-0.8,0.96-1.2c0.31-0.41,0.67-0.79,1.04-1.16c0.36-0.37,0.73-0.75,1.1-1.12        c0.82-0.66,1.57-1.43,2.49-2c1.72-1.29,3.74-2.23,5.83-2.97c2.11-0.72,4.37-1.02,6.66-1.09c2.28,0.07,4.54,0.37,6.66,1.1        c2.09,0.75,4.1,1.68,5.82,2.97c0.92,0.57,1.67,1.34,2.49,2c0.37,0.38,0.73,0.75,1.1,1.12c0.37,0.37,0.73,0.75,1.03,1.16        c0.32,0.4,0.64,0.8,0.96,1.2c0.31,0.4,0.57,0.84,0.85,1.26c0.59,0.82,1.03,1.72,1.5,2.58c1.8,3.5,2.7,7.2,2.96,10.68        c0.03,0.87,0.06,1.73,0.1,2.57c-0.01,0.83-0.01,1.64-0.02,2.44c-0.01,1.59-0.02,3.12-0.04,4.59        c-0.07,5.82-0.13,10.54-0.17,13.84c-0.04,1.61-0.08,2.87-0.1,3.76C1355.78,908.6,1355.75,909.05,1355.71,909.05z"></path><path fill="#00093d" d="M1327.37,909.05c-0.04,0-0.07-0.45-0.11-1.31c-0.02-0.89-0.06-2.16-0.1-3.76        c-0.04-3.3-0.1-8.02-0.17-13.84c-0.01-1.46-0.02-2.99-0.03-4.59c-0.01-0.8-0.01-1.61-0.02-2.44        c-0.04-0.82-0.08-1.65-0.12-2.49c-0.29-3.37-1.2-6.94-2.96-10.3c-0.45-0.83-0.89-1.69-1.46-2.48        c-0.28-0.4-0.52-0.82-0.83-1.21c-0.31-0.38-0.62-0.76-0.93-1.15c-0.3-0.4-0.64-0.76-1-1.11c-0.35-0.36-0.7-0.71-1.06-1.07        c-0.79-0.63-1.51-1.36-2.39-1.9c-1.65-1.23-3.57-2.11-5.55-2.82c-2.01-0.68-4.15-0.96-6.32-1.04        c-2.17,0.07-4.31,0.35-6.32,1.03c-1.99,0.71-3.91,1.59-5.56,2.82c-0.88,0.54-1.6,1.27-2.39,1.9        c-0.35,0.36-0.71,0.72-1.06,1.07c-0.36,0.35-0.7,0.71-1,1.11c-0.31,0.38-0.62,0.77-0.93,1.15c-0.3,0.39-0.55,0.81-0.83,1.21        c-0.57,0.79-1,1.65-1.46,2.48c-1.76,3.37-2.67,6.93-2.96,10.3c-0.04,0.85-0.08,1.68-0.12,2.49c-0.01,0.83-0.01,1.64-0.02,2.44        c-0.01,1.59-0.02,3.12-0.04,4.59c-0.07,5.82-0.13,10.54-0.17,13.84c-0.04,1.61-0.08,2.87-0.1,3.76        c-0.04,0.86-0.07,1.31-0.11,1.31c-0.04,0-0.07-0.45-0.11-1.31c-0.02-0.89-0.06-2.15-0.1-3.76c-0.04-3.3-0.1-8.02-0.17-13.84        c-0.01-1.46-0.02-2.99-0.03-4.59c-0.01-0.8-0.01-1.61-0.02-2.44c0.03-0.84,0.06-1.7,0.1-2.57c0.27-3.47,1.17-7.17,2.97-10.68        c0.46-0.87,0.91-1.76,1.5-2.58c0.28-0.42,0.54-0.86,0.85-1.26c0.32-0.4,0.64-0.8,0.96-1.2c0.31-0.41,0.67-0.79,1.04-1.16        c0.36-0.37,0.73-0.75,1.1-1.12c0.82-0.66,1.57-1.43,2.49-2c1.73-1.29,3.74-2.23,5.83-2.97c2.11-0.72,4.37-1.02,6.66-1.09        c2.28,0.07,4.54,0.37,6.66,1.1c2.09,0.75,4.1,1.68,5.82,2.97c0.92,0.57,1.67,1.34,2.49,2c0.37,0.38,0.73,0.75,1.1,1.12        c0.37,0.37,0.73,0.75,1.03,1.16c0.32,0.4,0.64,0.8,0.96,1.2c0.31,0.4,0.57,0.84,0.85,1.26c0.59,0.82,1.03,1.72,1.5,2.58        c1.8,3.5,2.7,7.2,2.96,10.68c0.03,0.87,0.06,1.73,0.1,2.57c-0.01,0.83-0.01,1.64-0.02,2.44c-0.01,1.59-0.02,3.12-0.04,4.59        c-0.07,5.82-0.13,10.54-0.17,13.84c-0.04,1.61-0.08,2.87-0.1,3.76C1327.44,908.6,1327.4,909.05,1327.37,909.05z"></path><polygon fill="#969617" points="1385.69 1006.34 1251.29 1006.31 1265.15 904.58 1372.87 904.6"></polygon><path fill="#00093d" d="M1299.39,904.84c0.04,0,0.07,0.57,0.11,1.65c0.03,1.11,0.06,2.7,0.11,4.73        c0.05,4.13,0.12,10.06,0.21,17.38c0.13,14.68,0.24,34.96,0.29,57.36c0.01,7.04,0.02,13.87,0.03,20.36l0,1.04l-0.83-0.62        c-9.3-6.92-17.76-13.22-24.84-18.49l0.5-0.01c-7.22,5.58-13.11,10.12-17.22,13.29c-2.04,1.54-3.64,2.75-4.75,3.59        c-0.54,0.39-0.95,0.69-1.26,0.91c-0.29,0.2-0.44,0.3-0.45,0.28c-0.01-0.02,0.12-0.14,0.38-0.38c0.29-0.24,0.68-0.58,1.18-1.01        c1.08-0.88,2.63-2.15,4.61-3.76c4.05-3.24,9.87-7.88,17-13.58l0.25-0.2l0.26,0.19c7.12,5.23,15.62,11.46,24.97,18.32        l-0.83,0.42c-0.02-6.49-0.04-13.32-0.07-20.36c-0.05-22.4-0.04-42.68,0.02-57.36c0.05-7.32,0.1-13.25,0.13-17.39        c0.04-2.03,0.07-3.62,0.09-4.73C1299.32,905.41,1299.35,904.84,1299.39,904.84z"></path></g><g><path fill="#00093d" d="M695.96,876.71c-0.04,0-0.07-0.53-0.11-1.55c-0.02-1.05-0.06-2.54-0.1-4.45        c-0.04-3.89-0.1-9.47-0.17-16.35c-0.01-1.73-0.02-3.53-0.03-5.42c-0.01-0.94-0.01-1.9-0.02-2.88        c-0.05-0.97-0.09-1.95-0.14-2.95c-0.34-3.99-1.41-8.21-3.49-12.2c-0.54-0.99-1.05-2-1.72-2.94c-0.33-0.47-0.62-0.97-0.98-1.43        c-0.37-0.45-0.73-0.91-1.1-1.36c-0.35-0.47-0.76-0.9-1.18-1.31c-0.42-0.42-0.83-0.85-1.25-1.27        c-0.46-0.38-0.92-0.77-1.38-1.16c-0.23-0.19-0.46-0.4-0.7-0.58l-0.75-0.51c-1.96-1.46-4.23-2.5-6.59-3.34        c-2.38-0.81-4.93-1.14-7.5-1.23c-2.57,0.08-5.12,0.41-7.5,1.22c-2.36,0.84-4.63,1.88-6.59,3.34l-0.75,0.51        c-0.24,0.18-0.47,0.39-0.7,0.58c-0.46,0.39-0.92,0.78-1.38,1.16c-0.42,0.43-0.84,0.85-1.25,1.27        c-0.42,0.42-0.83,0.84-1.18,1.31c-0.37,0.46-0.74,0.91-1.1,1.36c-0.36,0.46-0.65,0.96-0.98,1.43        c-0.68,0.93-1.19,1.95-1.73,2.94c-2.08,3.99-3.15,8.22-3.5,12.2c-0.05,1-0.1,1.99-0.14,2.95c-0.01,0.98-0.01,1.94-0.02,2.88        c-0.01,1.88-0.02,3.69-0.04,5.42c-0.07,6.88-0.13,12.46-0.17,16.35c-0.04,1.91-0.08,3.4-0.1,4.44        c-0.04,1.02-0.07,1.55-0.11,1.55c-0.04,0-0.07-0.53-0.11-1.55c-0.02-1.05-0.06-2.54-0.1-4.44c-0.04-3.89-0.1-9.47-0.17-16.35        c-0.01-1.73-0.02-3.53-0.03-5.42c0-0.94-0.01-1.9-0.02-2.88c0.04-0.99,0.08-2,0.12-3.02c0.32-4.09,1.38-8.45,3.5-12.58        c0.55-1.02,1.07-2.07,1.76-3.04c0.33-0.49,0.64-1.01,1-1.48c0.38-0.47,0.75-0.94,1.13-1.41c0.36-0.49,0.78-0.93,1.22-1.36        c0.43-0.44,0.86-0.88,1.3-1.32c0.47-0.4,0.95-0.8,1.43-1.21c0.24-0.2,0.47-0.41,0.72-0.6l0.78-0.54        c2.03-1.52,4.4-2.62,6.86-3.5c2.49-0.85,5.15-1.2,7.83-1.28c2.69,0.08,5.35,0.44,7.83,1.29c2.46,0.88,4.83,1.98,6.86,3.5        l0.78,0.54c0.25,0.19,0.48,0.4,0.72,0.6c0.48,0.41,0.95,0.81,1.43,1.21c0.43,0.44,0.86,0.88,1.29,1.32        c0.44,0.43,0.85,0.88,1.22,1.37c0.38,0.47,0.76,0.95,1.13,1.41c0.37,0.48,0.67,0.99,1,1.48c0.69,0.97,1.22,2.02,1.76,3.04        c2.12,4.13,3.18,8.48,3.5,12.58c0.04,1.03,0.08,2.03,0.12,3.02c-0.01,0.98-0.01,1.94-0.02,2.88        c-0.01,1.88-0.02,3.69-0.04,5.42c-0.07,6.88-0.13,12.46-0.17,16.35c-0.04,1.91-0.08,3.4-0.1,4.45        C696.03,876.17,695.99,876.71,695.96,876.71z"></path><path fill="#00093d" d="M662.48,876.7c-0.04,0-0.07-0.53-0.11-1.55c-0.02-1.05-0.06-2.54-0.1-4.45        c-0.04-3.89-0.1-9.47-0.17-16.35c-0.01-1.73-0.02-3.53-0.03-5.42c0-0.94-0.01-1.9-0.02-2.88c-0.05-0.97-0.09-1.95-0.14-2.95        c-0.34-3.99-1.41-8.21-3.49-12.2c-0.54-0.99-1.05-2-1.72-2.94c-0.33-0.47-0.62-0.97-0.98-1.43c-0.37-0.45-0.73-0.91-1.1-1.36        c-0.35-0.47-0.76-0.9-1.18-1.31c-0.42-0.42-0.83-0.85-1.25-1.27c-0.46-0.38-0.92-0.77-1.38-1.16c-0.23-0.19-0.46-0.4-0.7-0.58        l-0.75-0.51c-1.96-1.46-4.23-2.5-6.59-3.34c-2.38-0.81-4.93-1.14-7.5-1.23c-2.57,0.08-5.12,0.41-7.5,1.22        c-2.36,0.84-4.63,1.88-6.59,3.34l-0.75,0.51c-0.24,0.18-0.47,0.39-0.7,0.58c-0.46,0.39-0.92,0.78-1.38,1.16        c-0.42,0.43-0.84,0.85-1.25,1.27c-0.42,0.42-0.83,0.84-1.18,1.31c-0.37,0.46-0.74,0.91-1.1,1.36        c-0.36,0.46-0.65,0.96-0.98,1.43c-0.68,0.93-1.19,1.95-1.73,2.94c-2.08,3.99-3.15,8.22-3.5,12.2c-0.05,1-0.1,1.99-0.14,2.95        c-0.01,0.98-0.01,1.94-0.02,2.88c-0.01,1.88-0.02,3.69-0.04,5.42c-0.07,6.88-0.13,12.46-0.17,16.35        c-0.04,1.91-0.08,3.4-0.1,4.44c-0.04,1.02-0.07,1.55-0.11,1.55c-0.04,0-0.07-0.53-0.11-1.55c-0.02-1.05-0.06-2.54-0.1-4.44        c-0.04-3.89-0.1-9.47-0.17-16.35c-0.01-1.73-0.02-3.53-0.03-5.42c-0.01-0.94-0.01-1.9-0.02-2.88c0.04-0.99,0.08-2,0.12-3.02        c0.32-4.09,1.38-8.45,3.5-12.58c0.55-1.02,1.07-2.07,1.76-3.04c0.33-0.49,0.64-1.01,1-1.48c0.38-0.47,0.75-0.94,1.13-1.41        c0.36-0.49,0.78-0.93,1.22-1.36c0.43-0.44,0.86-0.88,1.3-1.32c0.47-0.4,0.95-0.8,1.43-1.21c0.24-0.2,0.47-0.41,0.72-0.6        l0.78-0.54c2.03-1.52,4.4-2.62,6.86-3.5c2.49-0.85,5.15-1.2,7.83-1.28c2.69,0.08,5.35,0.44,7.83,1.29        c2.46,0.88,4.83,1.98,6.86,3.5l0.78,0.54c0.25,0.19,0.48,0.4,0.72,0.6c0.48,0.41,0.95,0.81,1.43,1.21        c0.43,0.44,0.86,0.88,1.29,1.32c0.43,0.43,0.85,0.88,1.22,1.37c0.38,0.47,0.76,0.95,1.13,1.41c0.37,0.48,0.67,0.99,1,1.48        c0.69,0.97,1.22,2.02,1.76,3.04c2.12,4.13,3.18,8.48,3.5,12.58c0.04,1.03,0.08,2.03,0.12,3.02c-0.01,0.98-0.01,1.94-0.02,2.88        c-0.01,1.88-0.02,3.69-0.04,5.42c-0.07,6.88-0.13,12.46-0.17,16.35c-0.04,1.91-0.08,3.4-0.1,4.45        C662.55,876.16,662.52,876.7,662.48,876.7z"></path><polygon fill="#6b98df" points="728.42 1006.34 569.67 1006.31 586.05 856.72 713.28 856.75"></polygon><path fill="#00093d" d="M626.49,857.11c0.02,0,0.04,0.2,0.06,0.59c0.01,0.41,0.03,0.98,0.06,1.73c0.03,1.54,0.06,3.77,0.11,6.64        c0.05,5.79,0.12,14.12,0.22,24.42c0.08,20.64,0.19,49.11,0.31,80.56c0.01,12.34,0.03,24.22,0.04,35.27l0,1.17l-0.86-0.79        c-11.03-10.2-20.99-19.41-29.34-27.14l0.55-0.01c-8.57,8.27-15.53,14.99-20.36,19.65c-2.41,2.3-4.3,4.08-5.59,5.31        c-0.64,0.59-1.13,1.04-1.48,1.36c-0.34,0.3-0.52,0.45-0.53,0.44c-0.01-0.01,0.14-0.19,0.45-0.52c0.33-0.34,0.79-0.82,1.4-1.44        c1.26-1.27,3.09-3.11,5.44-5.47c4.77-4.72,11.64-11.52,20.11-19.91l0.27-0.27l0.28,0.26c8.4,7.68,18.41,16.84,29.49,26.98        l-0.86,0.38c-0.03-11.06-0.06-22.93-0.09-35.27c0-31.45,0.01-59.93,0.01-80.56c0.05-10.3,0.1-18.63,0.13-24.42        c0.04-2.87,0.07-5.1,0.09-6.64c0.02-0.75,0.04-1.32,0.05-1.73C626.46,857.31,626.47,857.11,626.49,857.11z"></path></g><g><path fill="#00093d" d="M1184.93,345.35c0,0-5.63,21.16-36.18,19.96l0.93-10.16C1155.68,355.85,1169.91,354.93,1184.93,345.35z"></path><path fill="#f2b3c1" d="M1158.5,429.92c-14.54-0.72-25.22-0.03-32.87,1.08l22.36-43c8-3,8.58-10.61,14-20        c1.94-3.37,2.85-8.35,3-13l23.64,3.72c0,0-0.75,8.64,3.36,17.28c1.21,2.55,9,13,13,15l-4.05,45.77        C1193.89,434.29,1180.69,431.01,1158.5,429.92z"></path><path fill="#f2b3c1" d="M1161,368c11.36,15.3,31,8,31,8c-3-6-4.36-17.28-4.36-17.28l-22.76-3.26        C1164.73,360.1,1163,365,1161,368z"></path><path fill="#f2b3c1" d="M1150.44,327.04c-0.13,4.91,0.13,10.04,1.12,14.86c2.2,10.86,8.03,20.17,21.09,22.04        c34.48,4.94,33.6-24.97,33.22-50.12l-36.93-18.89l-14.88,7.25C1154.06,302.17,1150.8,313.83,1150.44,327.04z"></path><circle cx="1209.77" cy="332.44" r="13.23" fill="#f2b3c1" transform="rotate(-59.642 1209.768 332.42)"></circle><path fill="#1e1814" d="M1159.06,321.09c-0.05,1.55,0.63,2.84,1.53,2.87c0.9,0.03,1.67-1.2,1.72-2.76         c0.05-1.55-0.63-2.84-1.53-2.87C1159.89,318.3,1159.11,319.54,1159.06,321.09z"></path><path fill="#1e1814" d="M1159.46,319.88c0.76,0.11,1.38-0.05,1.42-0.06c0.26-0.07,0.41-0.34,0.34-0.6         c-0.07-0.26-0.34-0.41-0.6-0.34c-0.02,0.01-1.12,0.28-1.95-0.32c-0.61-0.44-0.96-1.24-1.05-2.4         c-0.02-0.27-0.25-0.47-0.52-0.45c-0.27,0.02-0.47,0.25-0.45,0.52c0.11,1.47,0.6,2.52,1.46,3.13         C1158.55,319.67,1159.03,319.82,1159.46,319.88z"></path><path fill="#1e1814" d="M1163.46 342.12c.1.01.2 0 .29-.05l8.23-4.21c.24-.12.33-.42.21-.66-.12-.24-.42-.34-.66-.21l-7.21 3.69c1.01-3.4 4.14-13.87 5.87-19.21 1.23-3.8 1.28-6.93.15-9.04-.72-1.34-1.91-2.27-3.46-2.7-3.76-1.04-6.19 1.91-6.29 2.03-.17.21-.14.52.07.69.21.17.52.14.69-.07.08-.11 2.13-2.58 5.27-1.7 1.3.36 2.26 1.11 2.86 2.22 1.01 1.88.93 4.74-.21 8.28-2.08 6.41-6.16 20.19-6.2 20.33-.06.19.01.39.16.51C1163.29 342.07 1163.38 342.11 1163.46 342.12zM1180.11 314.37c.24.03.47-.11.54-.35.04-.13.96-3.29 4.48-3.63 3.56-.34 5.27 2.47 5.34 2.59.14.23.44.31.67.17.23-.14.31-.44.17-.67-.08-.14-2.09-3.47-6.28-3.06-4.21.4-5.32 4.31-5.33 4.35-.07.26.08.53.34.6C1180.07 314.37 1180.09 314.37 1180.11 314.37zM1180.49 323.14c-.05 1.55.63 2.84 1.53 2.87.9.03 1.67-1.2 1.72-2.76.05-1.55-.63-2.84-1.53-2.87C1181.31 320.35 1180.54 321.59 1180.49 323.14z"></path><path fill="#1e1814" d="M1180.88 321.93c.76.11 1.38-.05 1.42-.06.26-.07.41-.34.34-.6-.07-.26-.34-.41-.6-.34l0 0c-.01 0-1.11.28-1.96-.32-.61-.44-.96-1.24-1.05-2.4-.02-.27-.25-.47-.52-.45-.27.02-.47.25-.45.52.11 1.47.6 2.52 1.46 3.13C1179.98 321.72 1180.45 321.87 1180.88 321.93zM1179.09 347.65c.02 0 .04 0 .06.01 2.44.03 4.33-.69 5.61-2.14 2.27-2.55 1.81-6.4 1.79-6.57-.03-.27-.28-.46-.55-.42-.27.03-.46.28-.42.54 0 .04.42 3.58-1.56 5.8-1.09 1.22-2.73 1.83-4.87 1.81-.27 0-.49.21-.49.48C1178.67 347.41 1178.85 347.61 1179.09 347.65zM1211.83 338.97c.25.04.49-.13.55-.38.2-.92 1.06-5.57-1.03-6.41-1.28-.51-2.91.83-4.1 2.12 1.28-4.07 3.36-8.91 5.2-9.23.58-.1 1.04-.01 1.41.27.75.57.88 1.75.89 1.77.03.27.27.47.54.44.27-.03.46-.26.44-.53-.01-.07-.17-1.61-1.26-2.44-.59-.45-1.32-.61-2.17-.46-3.54.61-6.33 11.06-6.64 12.25-.06.23.05.47.27.57.21.1.47.03.6-.16 1.25-1.77 3.46-4.08 4.47-3.68.99.4.85 3.34.43 5.3-.06.26.11.52.38.58C1211.81 338.97 1211.82 338.97 1211.83 338.97z"></path><path fill="#e391a7" d="M1187.22 331.84c-.61 4.25 2.34 8.19 6.59 8.8 4.25.61 8.19-2.34 8.8-6.59.61-4.25-2.34-8.19-6.59-8.8S1187.83 327.59 1187.22 331.84zM1150.44 327.04c-.13 4.91.13 10.04 1.12 14.86.18.04.37.07.57.1 4.26.61 8.19-2.34 8.8-6.59.61-4.26-2.34-8.19-6.59-8.8C1152.98 326.41 1151.64 326.58 1150.44 327.04z"></path><path fill="#2d2520" d="M1134.11 310.5c15.28-24.37 30.51-38.54 50.03-29.94 24.15-5.08 45.73 22.18 36.56 44.42l-.02-.01c-2.92-4.57-9.42-6.97-14.72-5.21l-.01 0c-15.1 6.46-29.8-14.87-32.3-22.44 0 0-8.96 18.35-22.15 17.74-2.04 15.49-2.84 37.91 13.17 46.42 0 0-15.88 46.64-45.14 58.1l-29.04-20.7c0 0 11.69-5.54 13.07-13.96 0 0-11.55 13.12-20.86 8.08 0 0-26.39-7.3-28.3-36.94C1054.4 356.07 1118.83 334.88 1134.11 310.5zM1199.57 377.73c-2.37-.47-4.28-1.26-5.79-2.29-4.61-3.13-5.59-8.28-5.61-12.04 9.3-2.63 13.81-9.86 15.94-19 1.16.55 2.43.94 3.77 1.13 4.05.58 7.94-.74 10.76-3.29C1218.88 351.85 1217.61 375.66 1199.57 377.73z"></path><path fill="#1e1814" d="M1151.79 297.59c-5.95 6.83-10.08 14.93-14.78 22.6-4.16 6.8-9 13.05-14.82 18.51-5.52 5.18-11.77 9.58-18.53 12.98-6.71 3.37-13.94 5.71-21.38 6.74-7.86 1.09-16.81 1.16-23.85-2.98-.88-.52-1.72-1.09-2.51-1.73-.49-.39.12-1.16.61-.77 6.49 5.23 15.52 5.6 23.46 4.78 7.39-.76 14.6-2.86 21.33-5.99 6.78-3.16 13.07-7.36 18.66-12.32 5.76-5.11 10.69-11.04 14.83-17.52 4.75-7.44 8.7-15.42 14.15-22.4.67-.85 1.36-1.69 2.07-2.51C1151.44 296.51 1152.21 297.11 1151.79 297.59L1151.79 297.59zM1145.8 331.5c-3.79 14.43-7.66 29.13-15.39 42.04-6.24 10.42-15.34 19.66-26.71 24.32-3.16 1.3-6.5 2.23-9.89 2.68-3.84.51-7.89.29-11.26-1.79-.53-.33.08-1.09.61-.77 3.07 1.89 6.83 2.05 10.32 1.61 2.96-.37 5.88-1.13 8.68-2.18 5.56-2.09 10.63-5.35 15.06-9.28 9.94-8.82 16.24-20.73 20.66-33.1 2.77-7.75 4.88-15.72 6.97-23.68C1144.99 330.76 1145.96 330.9 1145.8 331.5L1145.8 331.5zM1145.95 349.09c-1.59 8.37-4.49 16.47-8.59 23.94-1.17 2.12-2.43 4.19-3.78 6.2-.35.52-1.11-.09-.76-.61 4.66-6.94 8.21-14.6 10.51-22.64.66-2.32 1.21-4.66 1.66-7.03C1145.1 348.33 1146.07 348.47 1145.95 349.09L1145.95 349.09zM1212.32 348.98c-.9 6.83-4 13.32-8.73 18.33-1.34 1.42-2.81 2.72-4.38 3.88-.51.37-1.09-.41-.59-.78 5.39-3.97 9.43-9.64 11.48-16.01.59-1.81.99-3.67 1.24-5.56C1211.43 348.22 1212.4 348.36 1212.32 348.98L1212.32 348.98z"></path><g><path fill="#1e1814" d="M1201.95,361.74c-1.61,3.36-4.6,5.98-8.16,7.1c-0.6,0.19-0.97-0.72-0.37-0.9         c3.32-1.05,6.12-3.45,7.63-6.59C1201.33,360.79,1202.22,361.17,1201.95,361.74L1201.95,361.74z"></path></g><g><path fill="#1e1814" d="M1174.55,289.19c-0.43,5.6-0.87,11.35,0.53,16.86c1.24,4.91,3.99,9.33,8.45,11.9         c2.35,1.36,4.95,2.31,7.55,3.07c2.85,0.84,5.83,1.38,8.81,1.3c4.71-0.12,9.6-1.91,12.57-5.72c2.97-3.81,3.37-9.87-0.19-13.48         c-0.44-0.44,0.17-1.21,0.61-0.77c3.25,3.3,3.71,8.57,1.72,12.66c-2.14,4.4-6.76,7.1-11.44,7.96         c-5.93,1.1-12.29-0.55-17.71-2.96c-2.52-1.12-4.86-2.61-6.71-4.68c-1.7-1.89-2.96-4.17-3.83-6.55         c-2.31-6.32-1.81-13.15-1.31-19.72C1173.63,288.42,1174.59,288.57,1174.55,289.19L1174.55,289.19z"></path></g><g><path fill="#f2b3c1" d="M1071.76,361.07c0,0,2.9-8.82,3.71-18c0.59-6.65,0.49-16.79,0.24-18.17c-1.91-10.42-4.11-20.44-7.84-22.3      c-3.37-1.68-7.9-1.21-8.45,14.6l-18.17-3.25c0,0-22.05-4.69-23.18,4.57c-0.97,7.96,5.09,7.43,5.09,7.43s-7.19,0.29-6.78,7.13      c0.41,6.85,5.46,7.15,5.46,7.15s-3.36,0.62-3.8,6.18c-0.47,5.88,4.28,7.33,4.28,7.33s-7.07,5.34-2.39,11.96      c3.42,4.83,31.66,5.74,31.66,5.74l18.55-11.07L1071.76,361.07z"></path><path fill="#a2c7f4" d="M1062.79,293.34c0.08,1.7-12.1,58.83-12.1,58.83l-27.8-5.86l10.02-51L1062.79,293.34z"></path><path fill="#a2c7f4" d="M1036.38,257.98c0,0-63.99-14.75-86.06-43.8l-7.95-0.01c0,0-27.62,53.68-11.28,99.96l5.92,0.01        c0,0,38.4-25.18,97.48-17.23L1036.38,257.98z"></path><path fill="#757d02" d="M1067.75,261.44c-0.06,0.63-5.8,37.52-5.8,37.52l-34.8-2.57l6.04-41.3L1067.75,261.44z"></path><path fill="#757d02" d="M1067.75,261.44c0,0,19.51,2.52,16.58,22.39c-2.93,19.87-23.19,15.08-23.19,15.08L1067.75,261.44z"></path><path fill="#00093d" d="M931.09,314.13c0.01,0.03-0.1-0.16-0.21-0.49c-0.12-0.33-0.29-0.83-0.49-1.48           c-0.41-1.31-0.94-3.26-1.52-5.8c-1.17-5.07-2.42-12.54-2.9-21.87c-0.2-4.66-0.23-9.78,0.15-15.26           c0.39-5.49,1.33-11.31,2.75-17.32c2.84-12.03,7.22-24.92,13.01-37.97l0.19-0.42l0.45,0.13c0.26,0.07,0.55,0.16,0.83,0.24           c0.38,0.11,0.75,0.21,1.1,0.31l0.29,0.08l0.08,0.29c1.93,6.88,3.14,13.76,3.77,20.45c0.68,6.69,0.54,13.19,0.16,19.34           c-0.13,1.54-0.25,3.05-0.37,4.55c-0.19,1.49-0.38,2.96-0.57,4.41c-0.1,0.72-0.19,1.44-0.29,2.15           c-0.13,0.71-0.25,1.41-0.38,2.11c-0.25,1.39-0.49,2.76-0.73,4.11c-1.16,5.35-2.39,10.3-3.8,14.73           c-2.77,8.88-5.69,15.83-7.9,20.52c-0.52,1.18-1.04,2.24-1.52,3.15c-0.46,0.89-0.86,1.65-1.18,2.27           c-0.3,0.58-0.54,1.03-0.7,1.35C931.16,314,931.09,314.15,931.09,314.13c0.27-0.62,1.24-2.82,3.25-7.36           c2.08-4.74,4.88-11.7,7.55-20.57c1.36-4.42,2.54-9.36,3.65-14.69c0.23-1.34,0.46-2.7,0.7-4.09           c0.12-0.69,0.24-1.39,0.36-2.1c0.09-0.71,0.18-1.42,0.27-2.14c0.18-1.44,0.36-2.9,0.54-4.38c0.11-1.49,0.23-2.99,0.35-4.52           c0.35-6.1,0.47-12.55-0.23-19.18c-0.64-6.63-1.85-13.44-3.76-20.25l0.37,0.37c-0.35-0.1-0.72-0.21-1.1-0.31           c-0.29-0.08-0.57-0.16-0.83-0.24l0.63-0.29c-5.75,12.96-10.16,25.81-13.03,37.75c-1.44,5.97-2.41,11.73-2.83,17.16           c-0.42,5.43-0.44,10.53-0.28,15.16c0.38,9.28,1.51,16.73,2.55,21.81c0.51,2.54,0.98,4.51,1.32,5.83           c0.17,0.65,0.3,1.15,0.39,1.51C931.07,313.95,931.08,314.09,931.09,314.13z"></path><path fill="#00093d" d="M937.98 314.13c-.03-.02.09-.36.35-.99.26-.63.67-1.55 1.2-2.74.54-1.18 1.2-2.62 1.89-4.33.7-1.7 1.57-3.61 2.37-5.79.84-2.16 1.76-4.52 2.62-7.11.93-2.56 1.76-5.35 2.65-8.28 1.67-5.89 3.25-12.43 4.33-19.41 1.05-6.98 1.51-13.7 1.57-19.82-.06-3.06-.05-5.97-.31-8.68-.11-1.36-.16-2.67-.3-3.92-.16-1.25-.3-2.45-.45-3.6-.23-2.31-.68-4.35-.98-6.17-.17-.9-.29-1.75-.46-2.52-.18-.76-.34-1.47-.49-2.1-.29-1.26-.51-2.25-.64-2.92-.14-.67-.19-1.03-.15-1.04.04-.01.16.33.36.98.2.65.48 1.62.84 2.88.18.63.37 1.33.58 2.09.19.77.35 1.61.55 2.52.36 1.81.87 3.86 1.14 6.18.17 1.15.34 2.36.52 3.62.17 1.26.24 2.58.37 3.95.3 2.73.32 5.66.41 8.74-.01 6.16-.44 12.94-1.5 19.98-1.09 7.03-2.72 13.62-4.44 19.53-.92 2.94-1.78 5.73-2.75 8.3-.89 2.59-1.87 4.95-2.75 7.1-.85 2.17-1.77 4.06-2.53 5.75-.75 1.69-1.46 3.11-2.06 4.27-.59 1.16-1.06 2.05-1.39 2.65C938.2 313.84 938.01 314.14 937.98 314.13zM1067.2 262.82c.29.05-.86 8.21-2.57 18.22-1.71 10.02-3.33 18.09-3.62 18.04-.29-.05.86-8.21 2.57-18.22C1065.29 270.85 1066.91 262.77 1067.2 262.82z"></path><path fill="#f2b3c1" d="M1027.79,312.98c5.19,0.4,9.72,1.75,14.77,3.01c2.15,0.53,4.34,1.17,6.07,2.54       c1.73,1.36,2.92,3.62,2.39,5.75c-0.52,2.11-2.59,3.57-4.73,4.04c-2.14,0.48-4.38,0.16-6.55-0.16       c-6.33-0.93-10.87-1.21-17.2-2.14L1027.79,312.98z"></path><path fill="#00093d" d="M1022.54,326.01c0.01-0.08,0.83-0.02,2.31,0.11c1.55,0.14,3.67,0.34,6.27,0.57         c2.65,0.24,5.81,0.56,9.29,1.05c1.73,0.23,3.54,0.44,5.33,0.13c1.74-0.29,3.54-1.26,4.41-2.85c0.9-1.59,0.37-3.58-0.72-4.96         c-1.08-1.41-2.71-2.25-4.3-2.83c-1.61-0.58-3.25-0.93-4.76-1.35c-1.5-0.4-2.91-0.78-4.2-1.12c-2.56-0.67-4.66-1.09-6.12-1.34         c-1.46-0.25-2.27-0.37-2.27-0.45c0-0.07,0.83-0.09,2.32,0.04c1.49,0.13,3.64,0.44,6.24,1.02c1.3,0.28,2.72,0.63,4.24,1         c1.51,0.39,3.15,0.7,4.87,1.28c1.69,0.58,3.52,1.47,4.8,3.12c0.63,0.81,1.12,1.77,1.33,2.85c0.21,1.07,0.06,2.26-0.49,3.26         c-1.11,2.01-3.2,3.06-5.18,3.39c-2,0.33-3.91,0.07-5.65-0.19c-3.47-0.55-6.6-0.94-9.24-1.28c-2.64-0.34-4.77-0.65-6.24-0.91         C1023.33,326.28,1022.53,326.08,1022.54,326.01z"></path><path fill="#f2b3c1" d="M1024.8,326.55c5.19,0.4,14.51,2.56,19.56,3.81c2.15,0.53,4.34,1.17,6.07,2.54       c1.73,1.36,2.92,3.62,2.39,5.75c-0.52,2.11-2.59,3.57-4.73,4.04c-2.14,0.48-4.38,0.16-6.55-0.16       c-6.33-0.93-12.1-1.02-18.44-1.95L1024.8,326.55z"></path><path fill="#00093d" d="M1024.33,340.39c0.01-0.08,0.85-0.02,2.36,0.12c1.58,0.14,3.74,0.34,6.39,0.59         c2.69,0.25,5.92,0.58,9.47,1.08c1.75,0.23,3.61,0.41,5.41,0.01c1.74-0.39,3.54-1.5,4.2-3.23c0.67-1.72-0.1-3.69-1.33-4.98         c-1.24-1.32-2.97-2.07-4.62-2.6c-3.39-0.97-6.57-1.73-9.18-2.39c-2.63-0.65-4.76-1.13-6.24-1.45         c-1.48-0.32-2.3-0.51-2.29-0.58c0.01-0.07,0.85-0.03,2.36,0.17c1.51,0.2,3.68,0.57,6.33,1.12c2.67,0.58,5.79,1.24,9.3,2.19         c1.73,0.53,3.62,1.29,5.09,2.82c0.72,0.76,1.31,1.68,1.64,2.73c0.33,1.05,0.36,2.26-0.07,3.35c-0.42,1.09-1.19,1.97-2.08,2.6         c-0.89,0.63-1.88,1.05-2.9,1.27c-2.03,0.43-3.99,0.2-5.77-0.05c-3.54-0.56-6.72-0.96-9.42-1.31         c-2.69-0.34-4.86-0.66-6.36-0.93C1025.14,340.66,1024.32,340.46,1024.33,340.39z"></path><g><path fill="#f2b3c1" d="M1022.54,340.39c5.19,0.4,18.57,3.11,23.61,4.36c2.15,0.53,4.34,1.17,6.07,2.54       c1.73,1.36,2.92,3.62,2.39,5.75c-0.52,2.11-2.59,3.57-4.73,4.04c-2.14,0.48-4.38,0.16-6.55-0.16       c-6.33-0.93-12.91-1.67-19.25-2.61l-2.61-6.39L1022.54,340.39z"></path></g><g><path fill="#00093d" d="M1025.1,354.46c0.01-0.07,0.88-0.03,2.45,0.12c1.56,0.15,3.82,0.39,6.61,0.72         c2.81,0.35,6.12,0.76,9.78,1.21c1.82,0.24,3.74,0.48,5.62,0.1c1.82-0.35,3.71-1.49,4.39-3.27c0.69-1.79-0.17-3.83-1.48-5.13         c-1.34-1.32-3.15-2.04-4.88-2.56c-3.55-0.96-6.81-1.81-9.51-2.48c-2.72-0.67-4.93-1.13-6.47-1.4         c-1.54-0.28-2.4-0.4-2.39-0.48c0-0.07,0.88-0.09,2.45,0.06c1.57,0.15,3.83,0.5,6.58,1.07c2.76,0.58,5.99,1.35,9.62,2.27         c1.8,0.52,3.76,1.24,5.34,2.77c0.77,0.76,1.4,1.7,1.76,2.79c0.37,1.07,0.42,2.33-0.02,3.47c-0.43,1.13-1.25,2.03-2.17,2.67         c-0.92,0.64-1.97,1.05-3.02,1.26c-2.11,0.4-4.13,0.12-5.96-0.15c-3.66-0.54-6.96-1.03-9.75-1.44         c-2.77-0.42-5.02-0.78-6.56-1.06C1025.94,354.72,1025.09,354.53,1025.1,354.46z"></path></g><g><path fill="#00093d" d="M1023.17,367.05c0.01-0.08,0.77-0.03,2.13,0.09c1.43,0.13,3.38,0.3,5.75,0.51         c2.43,0.22,5.33,0.5,8.53,0.96c1.58,0.21,3.25,0.4,4.88,0.12c1.59-0.27,3.23-1.15,4.02-2.6c0.81-1.44,0.33-3.25-0.66-4.51         c-0.98-1.29-2.47-2.06-3.93-2.59c-1.47-0.53-2.98-0.85-4.36-1.24c-1.38-0.37-2.67-0.72-3.85-1.03         c-4.7-1.25-7.71-1.51-7.69-1.68c0-0.07,0.77-0.1,2.13,0.02c1.37,0.11,3.34,0.4,5.74,0.92c1.2,0.26,2.5,0.57,3.89,0.91         c1.39,0.35,2.89,0.64,4.47,1.17c1.55,0.54,3.24,1.36,4.43,2.87c0.58,0.75,1.04,1.64,1.23,2.63c0.2,0.99,0.05,2.1-0.45,3.02         c-1.03,1.86-2.96,2.83-4.79,3.13c-1.85,0.3-3.6,0.06-5.2-0.18c-3.18-0.5-6.05-0.87-8.48-1.18c-2.42-0.31-4.38-0.61-5.73-0.85         C1023.89,367.31,1023.16,367.13,1023.17,367.05z"></path></g><g><path fill="#00093d" d="M1060.89,307.73c0.16,0.03-0.21,1.95-0.25,5.13c-0.02,1.58,0.03,3.48,0.31,5.56         c0.28,2.07,0.77,4.38,1.89,6.48l0.2,0.38l-0.37,0.32c-0.36,0.31-0.8,0.58-1.16,0.96c-1.86,1.76-3,4.05-3.75,6.16         c-0.73,2.14-1.06,4.18-1.18,5.9c-0.24,3.45,0.42,5.56,0.23,5.6c-0.06,0.02-0.29-0.48-0.54-1.45         c-0.25-0.96-0.46-2.4-0.44-4.19c0.02-1.78,0.29-3.92,1-6.18c0.74-2.24,1.9-4.69,3.95-6.63c0.39-0.42,0.88-0.72,1.29-1.06         l-0.16,0.7c-1.22-2.32-1.67-4.73-1.9-6.88c-0.23-2.16-0.2-4.1-0.09-5.71C1060.15,309.59,1060.77,307.69,1060.89,307.73z"></path></g><g><path fill="#f2b3c1" d="M1059.09,447.68l12.67-86.61l-30.19-13.15c0,0-14.73,78.22-22.07,98.25       c-7.65,20.86-8.53,52.25,0.83,59.37c2.16,1.64,4.51,2.9,6.98,3.82C1040.17,498.54,1056.23,456.29,1059.09,447.68z"></path><path fill="#f2b3c1" d="M1098.91,400.79c-6.44,8.89-39.82,46.89-39.82,46.89c-2.86,8.62-18.92,50.86-31.78,61.68       c13.13,4.9,29.69,0.22,38.63-7.99c10.19-9.37,42.75-48.11,42.75-48.11l2.35-60.12C1111.05,393.13,1105.35,391.9,1098.91,400.79       z"></path></g><circle cx="1046" cy="476" r="31" fill="#f2b3c1"></circle></g><g><polygon fill="#ffae01" points="971.16 543.1 911.7 539.56 887.49 652.75 946.33 650.28"></polygon><path fill="#2d2520" d="M929.54,639.39c4.16-4.64,11.92-11.22,23.3-8.21l5.13,51.29l-150.88,1.66c0,0-1.19-13.49,20.2-22.58         c21.47-9.13,58.68-33.01,63.25-32.76c4.57,0.25,7.44,4.09,11.72,7.64c1.47,1.22,4.89,4.27,7.36,5.87         C916.04,646.48,924.42,645.09,929.54,639.39z"></path><path fill="#fff" d="M878.26 655.07c-.16.05-.57-.96-1.41-2.47-.83-1.51-2.16-3.49-4.01-5.35-1.85-1.85-3.83-3.19-5.34-4.02-1.51-.84-2.51-1.25-2.46-1.41.04-.12 1.14.04 2.8.73 1.65.69 3.82 2 5.77 3.94 1.94 1.95 3.24 4.12 3.93 5.78C878.23 653.93 878.39 655.03 878.26 655.07zM868.46 661.72c-.17.03-.46-1.1-1.19-2.81-.72-1.71-1.98-3.96-3.87-6.06-1.89-2.09-4-3.57-5.63-4.47-1.62-.9-2.72-1.31-2.67-1.48.03-.12 1.23.03 3.01.8.89.37 1.9.94 2.96 1.67 1.04.75 2.12 1.67 3.12 2.76.99 1.11 1.79 2.28 2.43 3.39.61 1.13 1.07 2.19 1.35 3.12C868.56 660.5 868.59 661.7 868.46 661.72zM858.41 667.36c-.17.03-.46-1.1-1.19-2.81-.72-1.71-1.98-3.96-3.87-6.06-1.89-2.09-4-3.57-5.63-4.47-1.62-.9-2.72-1.31-2.67-1.48.03-.12 1.23.03 3.01.8.89.37 1.9.94 2.96 1.67 1.04.75 2.12 1.67 3.12 2.76.99 1.11 1.79 2.28 2.43 3.39.61 1.13 1.07 2.19 1.35 3.12C858.51 666.13 858.54 667.34 858.41 667.36z"></path><g><path fill="#fcd2dc" d="M807.29,699.62c8.32,4.11,13.28,0.07,18.53-0.42c5.47-0.5,11.95,3.91,17.22,3.87         c9.23-0.07,14.51-4.07,21.45-4.28c10.2-0.32,14.57,4.7,25.17,3.8c7.88-0.67,10.29-4.28,18.2-4.42         c5.68-0.1,12.11,4.35,18.73,4.22c10.22-0.2,8.84-3.59,14.43-4.03c6.56-0.52,7.84,5.09,17.01,3.93l-0.21-19.84l-150.92,0.34         L807.29,699.62z"></path></g><g><path fill="#4e7ec4" d="M918,469c-7.21,33.71-28.98,138.57-28.98,138.57l80.13,2.57l17.99-84.8       c-1.86-6.38-22.75-85.41-28.14-106.34C941.37,423.54,924.95,436.52,918,469z"></path><path fill="#4e7ec4" d="M1011,431c-12.56-11.68-33.84-16.68-52-12c5.39,20.93,26.28,99.97,28.14,106.34l106.55,117.64       l103.9-33.83C1197.58,609.15,1051.91,469.05,1011,431z"></path></g><circle cx="974" cy="472" r="55" fill="#4e7ec4"></circle><g><path fill="#4e7ec4" d="M984.96,520.04l-17.2,90.1c3.89-0.05,7.78-0.09,11.66-0.14c2.25-2.51,1.78-6.42,0.67-9.61       c-1.11-3.19-2.74-6.39-2.35-9.74c0.48-4.24,4.03-7.46,5.46-11.49c2.12-5.97-0.7-12.45-1.05-18.77       c-0.36-6.42,1.86-12.67,2.94-19.02C986.17,535.04,989.43,524.67,984.96,520.04z"></path></g><g><path fill="#00093d" d="M977.84,472.72c0.16-0.01,0.37,3.03,0.84,7.91c0.47,4.88,1.28,11.61,2.61,18.97         c1.34,7.36,2.94,13.94,4.21,18.68c1.27,4.74,2.14,7.65,1.99,7.7c-0.07,0.02-0.37-0.68-0.86-1.97         c-0.49-1.29-1.13-3.17-1.86-5.53c-1.46-4.7-3.19-11.3-4.54-18.7c-1.34-7.4-2.03-14.18-2.31-19.1         c-0.14-2.46-0.21-4.45-0.2-5.83C977.73,473.49,977.76,472.72,977.84,472.72z"></path></g></g><g><path fill="#fff" d="M1143.52,552.51c1.85-0.08,3.61,1.48,3.76,3.32c0.15,1.84-1.36,3.66-3.19,3.87s-3.71-1.23-3.98-3.06      c-0.27-1.83,1.1-3.75,2.92-4.08"></path></g><path fill="#ffae01" d="M1100.58,394.96l-35.21,31.26l31.33,44.87l14.65-16.1l3.1-66.92     C1108.75,389.72,1103.73,391.97,1100.58,394.96z"></path><circle cx="1233" cy="427" r="31" fill="#ffae01"></circle><path fill="#ffae01" d="M1227.51,390.17l-32.25-4.89l-49.88-0.9c-7.91-0.27-20.56,0.7-30.93,3.69l-3.1,66.92L1099,545l128,7l10-5     c0,0-6-49-9.15-89.81l23.17-55.42C1235.54,389.69,1227.71,390.15,1227.51,390.17z"></path><circle cx="1123" cy="422" r="35" fill="#ffae01" stroke="#f2b3c1" stroke-miterlimit="10" stroke-width=".313"></circle><g><path fill="#00093d" d="M1065.36,426.23c0.06-0.04,0.55,0.55,1.38,1.66c0.86,1.18,2.03,2.78,3.46,4.74        c2.92,4.08,6.89,9.61,11.27,15.72c4.38,6.16,8.28,11.78,11.02,15.92c1.37,2.07,2.46,3.75,3.18,4.94        c0.72,1.18,1.09,1.86,1.03,1.9c-0.06,0.04-0.55-0.55-1.38-1.66c-0.86-1.18-2.03-2.78-3.46-4.74        c-2.92-4.08-6.89-9.61-11.27-15.73c-4.38-6.16-8.28-11.78-11.02-15.91c-1.37-2.07-2.46-3.75-3.18-4.94        C1065.67,426.94,1065.3,426.27,1065.36,426.23z"></path></g><g><path fill="#00093d" d="M1313.08,515.58c-0.01,0.33-5.25,0.1-11.49,1.51c-6.25,1.36-10.9,3.79-11.05,3.49        c-0.15-0.21,4.39-3.13,10.82-4.54C1307.77,514.6,1313.13,515.32,1313.08,515.58z"></path></g><g><defs><path id="a" d="M1284.76,441.66c-15.52-20.47-24.93-33.02-33.74-39.89c-15.48-12.07-23.31-11.61-23.51-11.59       l-32.25-4.89l-49.88-0.9c-12.26-0.43-35.89,2.14-44.79,10.58l-35.21,31.26l31.33,44.87l14.65-16.1l7.84,91.78L1232,558l1-18       c0,0-7.13-43.16-5.15-82.81l13.57,17.42L1284.76,441.66z"></path></defs><clipPath id="b"><use overflow="visible" xlink:href="#a"></use></clipPath><g clip-path="url(#b)"><path fill="#aaa431" d="M1224.45,487.15c-1.72-0.24-3.44-0.48-5.16-0.61c-1.72-0.13-3.44-0.27-5.16-0.32       c-1.72-0.05-3.78,0.48-5.5,0.47c-1.72-0.01-3.31-1.11-5.03-1.11c-1.72,0-3.44,0.48-5.16,0.45c-1.66-0.03-3.32-0.03-4.99-0.06       c-1.66-0.03-3.32-0.73-4.98-0.74c-1.66-0.01-2.86,0.17-4.52,0.19c-1.66,0.02-3.91-1.38-5.57-1.31       c-1.66,0.07-3.33-0.66-4.99-0.53c-1.69,0.14-3.38,0.51-5.07,0.72c-1.69,0.21-3.44,0.82-5.12,1.08       c-1.69,0.25-3.33-0.33-5.01-0.06c-1.69,0.27-3.38,0.53-5.06,0.79c-0.1,0.02-0.21,0.04-0.31,0.06       c-0.23-0.06-0.46-0.15-0.69-0.18c-1.66-0.27-3.35,0.92-5.01,0.61c-1.66-0.31-3.23,2.28-4.89,1.95c-1.66-0.34-3.34,0.14-5-0.21       c-1.72-0.36-3.25,1.89-4.97,1.53c-1.72-0.36-3.27-1.74-4.99-2.03c-1.72-0.3-3.58-0.16-5.3-0.33c-1.72-0.17-3.65-2.22-5.37-2.2       c-1.72,0.02-3.43,0.25-5.15,0.52c-2.64,0.42-2.68,7.11-0.06,7.69c1.72,0.38,3.44,0.76,5.16,1.03c1.72,0.27,3.44,0.55,5.16,0.75       c1.72,0.19,3.45-0.81,5.17-0.66c1.72,0.15,4.07,3.14,5.79,3.29c1.72,0.14,3.54-1.29,5.26-1.12c1.66,0.16,3.13,4.17,4.79,4.34       c1.66,0.16,3.42-1.78,5.08-1.63c1.66,0.15,2.83,1.66,4.49,1.78c1.66,0.12,3.32,0.14,4.98,0.2c1.66,0.07,4.34-2.84,6-2.83       c1.69,0,2.95,0.37,4.64,0.3c1.69-0.07,2.99,0.92,4.68,0.8c1.69-0.12,3.07-2.01,4.76-2.14c1.69-0.13,3.38-0.26,5.07-0.37       c1.69-0.12,3.38-0.52,5.07-0.59c1.69-0.07,3.59-1.92,5.28-1.81c1.69,0.11,3.19,1.41,4.88,1.59c1.69,0.18,3.38,0.57,5.08,0.71       c1.69,0.14,3.38,0.14,5.08,0.12c1.62-0.02,3.24,0.76,4.85,0.59c0.43,0.06,0.86,0.11,1.29,0.11c1.72,0.03,3.6-3.03,5.32-3.19       c1.72-0.16,3.27,1.38,4.99,0.97C1226.87,495.1,1227.07,487.52,1224.45,487.15z"></path></g><g clip-path="url(#b)"><path fill="#aaa431" d="M1107.59,543.61c1.77,0,3.54,0,5.3-0.1c1.76-0.09,3.52-0.14,5.26-0.29c1.74-0.16,3.78-0.91,5.52-1.06       c1.75-0.15,3.45,0.76,5.2,0.63c1.74-0.14,3.45-0.76,5.2-0.87c1.69-0.12,3.38-0.19,5.07-0.28c1.69-0.07,3.41,0.5,5.1,0.46       c1.69-0.06,2.89-0.3,4.58-0.39c1.69-0.11,4.01,1.26,5.69,1.14c1.68-0.11,3.38,0.57,5.06,0.44c1.71-0.15,3.41-0.53,5.12-0.75       c1.71-0.21,3.49-0.78,5.21-1.02c1.72-0.24,3.37,0.37,5.09,0.17l5.17-0.63l0.32-0.04c0.23,0.08,0.46,0.17,0.69,0.22       c1.67,0.35,3.45-0.75,5.13-0.36c1.67,0.38,3.42-2.07,5.1-1.63c1.67,0.46,3.42,0.07,5.09,0.58c1.72,0.51,3.47-1.6,5.2-1.09       c1.73,0.51,3.17,2.07,4.88,2.54c1.72,0.48,3.62,0.53,5.34,0.92c1.73,0.39,3.42,2.65,5.15,2.85c1.73,0.22,3.48,0.24,5.25,0.22       c2.71-0.04,3.78-6.65,1.17-7.6c-1.71-0.63-3.42-1.25-5.15-1.77c-1.74-0.49-3.48-0.99-5.23-1.4c-1.75-0.42-3.66,0.38-5.42,0.05       c-1.76-0.32-3.89-3.59-5.68-3.87c-1.78-0.3-3.8,0.97-5.58,0.65c-1.71-0.31-2.95-4.39-4.7-4.68c-1.74-0.28-3.7,1.52-5.44,1.3       c-1.73-0.23-2.89-1.8-4.64-2c-1.75-0.21-3.5-0.25-5.25-0.38c-1.76-0.13-4.64,2.7-6.38,2.69c-1.77-0.02-3.09-0.4-4.86-0.35       c-1.77,0.08-3.14-0.9-4.91-0.77c-1.78,0.12-3.2,2.02-4.96,2.21l-5.29,0.5c-1.76,0.19-3.51,0.66-5.26,0.81       c-1.77,0.14-3.64,2.09-5.4,2.1c-1.76,0-3.4-1.21-5.18-1.27c-1.77-0.04-3.56-0.29-5.34-0.29c-1.78-0.01-3.54,0.18-5.29,0.36       c-1.68,0.19-3.46-0.45-5.11-0.07c-0.46-0.01-0.91,0-1.36,0.04c-1.8,0.18-3.38,3.44-5.13,3.82c-1.75,0.4-3.55-0.92-5.27-0.26       C1103.99,536.08,1104.9,543.61,1107.59,543.61z"></path></g><g clip-path="url(#b)"><path fill="#aaa431" d="M1252.4,390.98c-2.39-0.07-4.79-0.13-7.17-0.09c-2.38,0.02-4.77,0.01-7.15,0.1       c-2.38,0.1-5.2,0.77-7.58,0.86c-2.38,0.09-4.61-0.89-6.99-0.82c-2.38,0.07-4.74,0.63-7.12,0.68l-6.89,0.09       c-2.3,0-4.6-0.62-6.9-0.64c-2.3,0-3.94,0.19-6.24,0.22c-2.3,0.05-5.39-1.41-7.68-1.35c-2.29,0.05-4.58-0.69-6.87-0.62       c-2.33,0.09-4.67,0.41-7,0.57c-2.33,0.14-4.77,0.66-7.11,0.83c-2.34,0.18-4.58-0.49-6.92-0.35l-7.03,0.45l-0.43,0.03       c-0.31-0.08-0.62-0.19-0.94-0.24c-2.28-0.41-4.68,0.63-6.96,0.18c-2.27-0.44-4.62,1.95-6.9,1.45c-2.27-0.51-4.63-0.19-6.9-0.75       c-2.34-0.57-4.66,1.48-7.01,0.91c-2.35-0.57-4.35-2.18-6.69-2.71c-2.34-0.54-4.91-0.65-7.26-1.11       c-2.35-0.45-4.76-2.78-7.12-3.04c-2.36-0.28-4.73-0.36-7.12-0.4c-3.67-0.05-4.66,6.56-1.11,7.61c2.33,0.69,4.66,1.37,7.01,1.95       c2.35,0.55,4.71,1.11,7.08,1.58c2.37,0.48,4.89-0.26,7.27,0.13c2.37,0.39,5.34,3.73,7.74,4.07c2.4,0.36,5.07-0.85,7.46-0.46       c2.3,0.36,4.03,4.5,6.36,4.85c2.33,0.34,4.93-1.4,7.25-1.12c2.32,0.29,3.87,1.9,6.2,2.16c2.33,0.27,4.67,0.37,7.01,0.56       c2.34,0.19,6.24-2.54,8.57-2.47c2.37,0.09,4.13,0.51,6.5,0.52c2.38-0.02,4.17,1.01,6.56,0.94c2.38-0.06,4.35-1.91,6.72-2.03       l7.12-0.31c2.37-0.12,4.74-0.54,7.1-0.62c2.37-0.07,5.01-1.96,7.38-1.9c2.37,0.06,4.48,1.34,6.86,1.46       c2.38,0.11,4.76,0.42,7.14,0.49c2.38,0.08,4.75-0.05,7.12-0.17c2.26-0.13,4.58,0.58,6.83,0.26c0.61,0.03,1.22,0.04,1.82,0.01       c2.42-0.11,4.86-3.32,7.25-3.63c2.38-0.33,4.66,1.05,7.03,0.46C1256.37,398.66,1256.04,391.08,1252.4,390.98z"></path></g><g clip-path="url(#b)"><path fill="#aaa431" d="M1109.15,459.18c-0.33-0.89-0.66-1.77-1.07-2.59c-0.41-0.83-0.8-1.66-1.26-2.45       c-0.47-0.78-1.51-1.4-2-2.17c-0.49-0.77-0.03-2.07-0.51-2.84c-0.48-0.77-1.37-1.28-1.84-2.07l-1.33-2.28       c-0.43-0.77-0.3-1.87-0.72-2.64c-0.43-0.76-0.91-1.21-1.37-1.96c-0.47-0.74,0.18-2.48-0.31-3.2c-0.49-0.73-0.28-1.84-0.81-2.54       c-0.54-0.71-1.29-1.31-1.9-1.99c-0.6-0.68-1.56-1.21-2.2-1.88c-0.64-0.67-0.52-1.71-1.15-2.38l-1.9-2.03l-0.12-0.12       c0.01-0.14,0.03-0.28,0.01-0.41c-0.14-0.91-1.6-1.19-1.7-2.12c-0.11-0.92-2.79-0.58-2.86-1.52c-0.07-0.95-0.89-1.56-0.92-2.51       c-0.04-0.98-2.42-0.82-2.47-1.81c-0.05-0.99,0.9-2.3,0.82-3.26c-0.08-0.96-0.6-1.81-0.78-2.73c-0.19-0.92,1.32-2.63,0.97-3.46       c-0.35-0.84-0.88-1.59-1.47-2.34c-0.89-1.14-7.16,1.2-7.18,2.74c-0.02,1.01-0.03,2.02,0.06,3c0.1,0.97,0.19,1.95,0.37,2.9       c0.17,0.95,1.47,1.44,1.7,2.36c0.23,0.92-2.02,3.3-1.76,4.24c0.26,0.93,1.98,1.27,2.21,2.2c0.22,0.9-3.07,3.32-2.83,4.24       c0.25,0.92,2.41,0.98,2.68,1.87c0.27,0.9-0.8,2.15-0.5,3.04c0.3,0.89,0.71,1.73,1.07,2.6c0.36,0.87,3.62,0.88,4.05,1.69       c0.43,0.83,0.43,1.62,0.93,2.42c0.51,0.79-0.01,1.9,0.54,2.67c0.55,0.78,2.57,0.53,3.14,1.28l1.7,2.26       c0.57,0.75,1.39,1.35,1.92,2.12c0.53,0.77,2.65,0.72,3.04,1.56c0.39,0.85-0.3,2.23,0.04,3.12c0.34,0.89,0.51,1.89,0.89,2.75       c0.38,0.87,0.9,1.65,1.42,2.43c0.5,0.74,0.34,1.93,0.98,2.57c0.08,0.23,0.18,0.46,0.31,0.66c0.51,0.81,3.62-0.05,4.28,0.63       c0.67,0.68-0.11,2.26,0.78,2.8C1103.43,464.87,1109.64,460.53,1109.15,459.18z"></path></g><g clip-path="url(#b)"><path fill="#aaa431" d="M1227.1,438.34c-1.72-0.33-3.45-0.66-5.18-0.88c-1.73-0.22-3.46-0.45-5.2-0.59       c-1.74-0.14-3.84,0.28-5.58,0.18c-1.74-0.1-3.28-1.28-5.02-1.38c-1.74-0.09-3.5,0.3-5.24,0.18c-1.68-0.11-3.36-0.2-5.03-0.32       c-1.68-0.11-3.32-0.9-5-1c-1.68-0.1-2.89,0.02-4.57-0.05c-1.68-0.07-3.87-1.58-5.56-1.6c-1.68-0.02-3.33-0.84-5.01-0.79       c-1.71,0.05-3.44,0.33-5.15,0.45c-1.72,0.12-3.51,0.64-5.23,0.8c-1.72,0.16-3.34-0.5-5.06-0.32c-1.72,0.18-3.44,0.36-5.15,0.52       c-0.11,0.01-0.21,0.03-0.32,0.04c-0.23-0.08-0.46-0.17-0.68-0.22c-1.67-0.36-3.43,0.74-5.1,0.35c-1.66-0.4-3.38,2.11-5.04,1.69       c-1.66-0.42-3.38-0.03-5.04-0.47c-1.72-0.45-3.38,1.71-5.1,1.26c-1.72-0.45-3.21-1.91-4.93-2.29c-1.72-0.39-3.6-0.35-5.33-0.61       c-1.73-0.26-3.57-2.41-5.31-2.48c-1.74-0.07-3.48,0.07-5.23,0.25c-2.69,0.28-3.07,6.96-0.46,7.67c1.72,0.47,3.43,0.94,5.16,1.3       c1.72,0.36,3.45,0.73,5.17,1.02c1.73,0.28,3.53-0.63,5.26-0.39c1.73,0.24,3.94,3.35,5.67,3.58c1.73,0.23,3.65-1.1,5.38-0.85       c1.67,0.25,2.94,4.33,4.61,4.58c1.67,0.25,3.54-1.6,5.21-1.36c1.67,0.24,2.77,1.8,4.44,2.01c1.67,0.2,3.35,0.31,5.02,0.47       c1.68,0.15,4.53-2.6,6.21-2.51c1.71,0.09,2.96,0.52,4.67,0.54c1.71,0.02,2.97,1.07,4.68,1.04c1.71-0.03,3.2-1.84,4.91-1.88       c1.71-0.04,3.43-0.08,5.14-0.11c1.71-0.03,3.44-0.34,5.15-0.32c1.71,0.02,3.72-1.73,5.43-1.53c1.7,0.2,3.14,1.57,4.85,1.84       c1.7,0.27,3.39,0.75,5.09,0.98c1.7,0.23,3.41,0.31,5.12,0.39c1.63,0.07,3.23,0.93,4.87,0.84c0.43,0.09,0.87,0.15,1.3,0.18       c1.74,0.12,3.79-2.84,5.54-2.91c1.74-0.07,3.23,1.55,4.99,1.23C1229.13,446.4,1229.73,438.84,1227.1,438.34z"></path></g></g><g><path fill="#00093d" d="M1115.88,425.05c0.29,0.04-0.74,8.8-2.3,19.57c-1.57,10.77-3.07,19.46-3.37,19.41        c-0.29-0.04,0.74-8.8,2.3-19.57C1114.08,433.7,1115.59,425.01,1115.88,425.05z"></path></g><g><path fill="#00093d" d="M1147.18,526.54c-0.02-0.18,2.42-0.42,6.27-1.22c1.93-0.39,4.19-0.98,6.67-1.74        c2.47-0.79,5.14-1.79,7.87-3.02c2.72-1.26,5.22-2.63,7.43-3.98c2.2-1.38,4.12-2.71,5.68-3.91c3.12-2.39,4.9-4.07,5.03-3.94        c0.05,0.05-0.34,0.52-1.11,1.33c-0.38,0.41-0.85,0.89-1.44,1.42c-0.58,0.53-1.23,1.16-2.01,1.78        c-1.51,1.29-3.42,2.71-5.62,4.15c-2.22,1.42-4.75,2.84-7.51,4.12c-2.77,1.25-5.5,2.23-8.03,2.99        c-2.53,0.72-4.85,1.24-6.82,1.54c-0.98,0.18-1.88,0.26-2.66,0.35c-0.78,0.1-1.46,0.14-2.02,0.16        C1147.8,526.62,1147.19,526.61,1147.18,526.54z"></path></g><g><path fill="#00093d" d="M1147.71,521.93c-0.06-0.18,3.29-1.3,8.47-3.61c1.29-0.58,2.71-1.22,4.2-1.98        c1.51-0.72,3.06-1.58,4.72-2.47c3.27-1.84,6.78-4,10.32-6.49c3.52-2.51,6.73-5.11,9.55-7.59c1.38-1.27,2.72-2.45,3.89-3.63        c1.21-1.15,2.28-2.27,3.26-3.3c3.9-4.13,6.07-6.91,6.22-6.8c0.06,0.04-0.43,0.78-1.38,2.07c-0.47,0.65-1.05,1.43-1.78,2.3        c-0.72,0.87-1.52,1.89-2.49,2.94c-0.95,1.07-2,2.23-3.19,3.42c-1.16,1.22-2.48,2.44-3.86,3.74c-2.81,2.54-6.03,5.19-9.59,7.73        c-3.57,2.52-7.14,4.67-10.46,6.48c-1.68,0.87-3.27,1.72-4.8,2.4c-1.51,0.73-2.96,1.34-4.28,1.88        c-1.31,0.57-2.54,0.99-3.6,1.38c-1.06,0.4-1.99,0.7-2.76,0.92C1148.59,521.78,1147.74,522,1147.71,521.93z"></path></g><g><path fill="#00093d" d="M1087.3,607.57c-0.06-0.04,0.35-0.88,1.15-2.37c0.85-1.54,2.02-3.67,3.45-6.28         c2.95-5.34,6.99-12.62,11.44-20.67c4.43-8.1,8.38-15.46,11.22-20.79c1.41-2.62,2.56-4.76,3.39-6.31         c0.81-1.48,1.28-2.29,1.35-2.26s-0.28,0.9-0.98,2.45c-0.7,1.54-1.75,3.76-3.09,6.47c-2.68,5.43-6.53,12.85-10.96,20.96         c-4.43,8.1-8.61,15.34-11.72,20.53c-1.54,2.6-2.84,4.68-3.75,6.11C1087.9,606.84,1087.37,607.61,1087.3,607.57z"></path><polygon fill="#ffae01" points="1073.13 809.85 1016.61 833.1 1060.21 938.9 1112.12 911.1"></polygon><path fill="#2d2520" d="M1092.27,908.59c1.73-5.98,5.86-15.28,17.41-17.52l26.92,43.96l-135.15,67.1          c0,0-6.94-11.62,8.37-29.12c15.36-17.56,38.49-55.24,42.71-57c4.22-1.76,8.48,0.45,13.87,1.78          c1.85,0.46,6.25,1.72,9.18,2.09C1083.2,920.84,1090.14,915.95,1092.27,908.59z"></path><path fill="#fff" d="M1052.91 945c-.12.12-.93-.61-2.34-1.61-1.41-1-3.47-2.21-5.93-3.08-2.47-.86-4.84-1.2-6.56-1.3-1.72-.1-2.81-.04-2.83-.2-.02-.13 1.04-.46 2.84-.56 1.79-.1 4.3.14 6.91 1.04 2.6.92 4.71 2.3 6.05 3.49C1052.38 943.99 1053.01 944.92 1052.91 945zM1046.98 955.25c-.14.1-.9-.79-2.3-2.01-1.39-1.22-3.51-2.7-6.11-3.77-2.61-1.06-5.16-1.48-7.01-1.58-1.85-.11-3.02 0-3.05-.17-.02-.12 1.12-.51 3.06-.59.97-.05 2.12.02 3.39.21 1.26.22 2.64.58 4.01 1.13 1.37.57 2.6 1.27 3.66 2 1.04.75 1.92 1.51 2.57 2.22C1046.53 954.11 1047.08 955.18 1046.98 955.25zM1040.38 964.7c-.14.1-.9-.79-2.3-2.01-1.39-1.22-3.51-2.7-6.11-3.77-2.61-1.06-5.16-1.48-7.01-1.58-1.85-.11-3.02 0-3.05-.17-.02-.12 1.12-.51 3.06-.59.97-.05 2.12.02 3.39.21 1.26.22 2.64.58 4.01 1.13 1.37.57 2.6 1.27 3.66 2 1.04.75 1.92 1.51 2.57 2.22C1039.93 963.55 1040.48 964.63 1040.38 964.7z"></path><path fill="#fcd2dc" d="M1008.37,1015.98c9.28,0.09,11.99-5.72,16.51-8.43c4.71-2.83,12.46-1.68,17.19-4          c8.28-4.08,11.3-9.97,17.46-13.19c9.05-4.72,15.17-2.1,24.32-7.52c6.8-4.03,7.41-8.33,14.47-11.9          c5.07-2.57,12.8-1.35,18.7-4.34c9.12-4.62,6.4-7.08,11.25-9.91c5.69-3.32,9.28,1.18,17.02-3.86l-8.81-17.78l-135.76,65.92          L1008.37,1015.98z"></path><g><path fill="#4e7ec4" d="M953 667c-.01.32.4 9.79 4 23 2.75 10.09 7.87 21.95 13 36 22.05 60.41 58.06 141.97 58.06 141.97l88.93-6.72-64.48-157.42L966 634C955.33 647.95 953 667 953 667zM1223.61 595.57l-9.32-46.06-86.61-2.39-11.28 65.95 4.91.22c0 0-108.31.71-122.31 2.71-12.91 1.84-27.29 10.54-33 18l87 70 130.47-3.5c10.62-.75 26.91-6.5 36.11-14.78 14.11-12.68 17.99-27.58 18.15-42.08C1237.85 632.72 1227.81 605.66 1223.61 595.57z"></path></g><circle cx="1008.5" cy="671.5" r="55.5" fill="#4e7ec4"></circle><g><path fill="#00093d" d="M981.67,758.85c-0.02,0.01-0.14-0.28-0.36-0.84c-0.22-0.57-0.54-1.41-0.96-2.5          c-0.83-2.21-2.05-5.46-3.61-9.63c-3.09-8.39-7.56-20.51-13.09-35.49c-1.37-3.75-2.81-7.68-4.32-11.77          c-1.46-4.1-3.22-8.31-4.33-12.91c-1.15-4.58-1.99-9.4-2.29-14.44c-0.14-2.51-0.14-5.08,0.09-7.67          c0.21-2.6,0.79-5.2,1.48-7.75c1.41-5.11,3.28-10.28,6.08-15.12c2.76-4.84,6.35-9.38,10.79-13.14          c4.42-3.77,9.65-6.72,15.28-8.74c2.8-1.08,5.75-1.73,8.7-2.43c1.5-0.24,3-0.52,4.51-0.67l2.27-0.26l2.28-0.19          c12.19-0.94,24.1-1.01,35.59-1.02c5.75-0.01,11.4,0.13,16.92,0.16c5.52-0.01,10.93-0.01,16.21-0.02          c21.11-0.12,40.12-0.49,56.09-0.69c15.97-0.23,28.89-0.3,37.82-0.27c4.47,0.01,7.93,0.04,10.28,0.09          c1.17,0.02,2.06,0.04,2.67,0.06c0.6,0.02,0.91,0.04,0.91,0.06c0,0.02-0.31,0.04-0.91,0.05c-0.62,0.01-1.51,0.03-2.67,0.05          c-2.36,0.03-5.83,0.06-10.28,0.11c-8.93,0.1-21.85,0.29-37.81,0.61c-15.96,0.3-34.98,0.75-56.1,0.92          c-5.28,0.02-10.69,0.04-16.22,0.06c-5.54-0.02-11.17-0.15-16.91-0.14c-11.48,0.02-23.39,0.1-35.5,1.03l-2.26,0.19          l-2.25,0.26c-1.5,0.14-2.97,0.42-4.44,0.66c-2.9,0.68-5.8,1.32-8.54,2.38c-5.53,1.97-10.64,4.85-14.96,8.53          c-4.33,3.67-7.86,8.1-10.58,12.84c-2.75,4.74-4.61,9.83-6.01,14.87c-0.69,2.54-1.26,5.04-1.47,7.58          c-0.24,2.53-0.24,5.05-0.11,7.53c0.28,4.96,1.1,9.74,2.21,14.27c1.08,4.54,2.81,8.74,4.25,12.85          c1.48,4.1,2.9,8.03,4.25,11.79c5.39,15.02,9.74,27.18,12.76,35.6c1.48,4.2,2.63,7.47,3.42,9.7c0.38,1.1,0.66,1.95,0.86,2.53          C981.6,758.54,981.69,758.84,981.67,758.85z"></path></g><g><path fill="#00093d" d="M1013,669c0.11-0.11,2.31,1.84,5.93,4.94c3.68,3.13,8.67,7.37,14.17,12.06          c5.54,4.72,10.5,9.05,13.99,12.32c1.75,1.62,3.13,2.98,4.06,3.94c0.93,0.96,1.41,1.52,1.36,1.57          c-0.11,0.11-2.31-1.84-5.93-4.94c-3.68-3.13-8.67-7.38-14.18-12.06c-5.54-4.71-10.5-9.05-13.98-12.31          c-1.75-1.62-3.13-2.98-4.06-3.94C1013.44,669.61,1012.95,669.05,1013,669z"></path></g><g><path fill="#4e7ec4" d="M1045.98,701.27c10.29,3.63,15.74,20.12,18.29,30.74s5.53,21.86,11.98,30.67        c7.06,9.63,17.7,14.84,23.39,25.34c5.82,10.75,3.32,25.17,11.15,34.56c4.34,5.21,9.31,8.41,14.77,12.42        c5.47,4.01,12.82,13.84,3.17,23.07l-23.78,1.7L1045.98,701.27z"></path></g><g><path fill="#00093d" d="M1114.55,603.44c-0.07-0.02,0.15-0.84,0.6-2.29c0.45-1.45,1.15-3.54,2.04-6.1         c1.78-5.13,4.37-12.18,7.42-19.89c3.05-7.71,5.97-14.63,8.18-19.6c1.1-2.48,2.02-4.48,2.68-5.85         c0.66-1.37,1.06-2.11,1.13-2.08s-0.2,0.83-0.74,2.25c-0.58,1.48-1.39,3.5-2.37,5.98c-2.04,5.1-4.81,12.03-7.88,19.69         c-3,7.69-5.71,14.65-7.71,19.76c-0.98,2.48-1.78,4.51-2.36,5.98C1114.97,602.7,1114.62,603.47,1114.55,603.44z"></path></g><g><path fill="#00093d" d="M1178.88,601.04c0.01,0.17-2.51,0.42-6.55,1.04c-4.03,0.62-9.58,1.7-15.51,3.56         c-5.93,1.87-11.1,4.16-14.76,5.95c-3.67,1.8-5.88,3.04-5.97,2.89c-0.04-0.06,0.47-0.44,1.43-1.08         c0.96-0.64,2.38-1.5,4.19-2.49c3.6-1.98,8.78-4.41,14.79-6.3c6.01-1.88,11.64-2.86,15.73-3.29c2.05-0.22,3.71-0.33,4.86-0.35         C1178.24,600.95,1178.87,600.97,1178.88,601.04z"></path></g></g><g><path fill="#f2b3c1" d="M1291.36 520.21l-64.44 31.69 18.9 21.76c0 0-8.88 6.52-15.16 10.35v0c0 0 84.22-28.14 102.11-40.57 6.24-4.33 8.55-10.28 8.92-16.19L1291.36 520.21zM1341.25 519.73c-1.26-7.39-4.78-14.2-9.75-19.81l-49.68-56.03-37.15 28.24 46.7 48.07 50.34 7.05C1341.86 524.7 1341.66 522.14 1341.25 519.73z"></path><path fill="#ffae01" d="M1238.32 465.72c-.83.56-1.71 1.07-2.59 1.58l5.69 7.3 3.25-2.47-6.28-6.47C1238.36 465.68 1238.34 465.7 1238.32 465.72zM1232.95 460.08C1232.95 460.08 1232.95 460.08 1232.95 460.08l-2.56-2.65 29.88-37.85 3.63 4.1c.73-.76 1.18-1.79 1.93-2.54.58-.59 1.58-.69 2.4-1.01-6.67-8.36-12.05-14.35-17.21-18.37l-23.17 55.42 2.48 3.18C1231.25 460.33 1232.39 460.47 1232.95 460.08zM1270.85 431.45c-.01.01-.03.02-.04.02l11.01 12.42 2.94-2.24c-3.61-4.76-6.88-9.08-9.89-13.01-.43.39-.87.78-1.33 1.14C1272.71 430.41 1271.7 430.84 1270.85 431.45z"></path><path fill="#ffae01" d="M1239 457.23c.98-.53-.03-2.74.95-3.27.95-.51 1.27-1.61 2.21-2.15.93-.54-.37-2.97.54-3.53.91-.57.7-2.13 1.57-2.72.12-.08.28-.13.42-.2l.08-.18 1.46-2.89c.48-.96 1.59-1.35 2.09-2.32.5-.96.74-2.19 1.28-3.12.54-.94.96-1.98 1.56-2.88.58-.88 1.84-1.19 2.49-2.02.66-.84 2.63-.97 3.34-1.77.7-.8 1.08-1.48 1.81-2.26.72-.78 1.97-1.08 2.73-1.83l2.26-2.27c.05-.04.08-.1.13-.15l-3.63-4.1-29.88 37.85 2.57 2.64c.87-.58 1.53-1.51 2.47-2.04C1236.35 457.49 1238.02 457.77 1239 457.23zM1270.81 431.47c-.85.58-2.38.37-3.17 1.03-.81.67-.24 2.79-.89 3.6-.64.82-1.05 1.83-1.65 2.69l-1.79 2.57c-.59.86.27 2.75-.32 3.6-.6.86-1.87.81-2.5 1.65-.63.84-1.42 1.19-2.11 1.98-.67.78.44 3.93-.3 4.68-.73.74-1.42 1.51-2.2 2.23-.78.71-2.41.28-3.21.97-.8.69-.08 2.8-.91 3.49-.83.68-4.44-1.3-5.26-.64-.86.68-.59 2.5-1.44 3.21-.84.72-4.06-.27-4.92.39-.84.65-.9 2.09-1.77 2.73l6.28 6.47 37.15-28.24L1270.81 431.47z"></path><path fill="#f2b3c1" d="M1226.93,551.91c0,0-0.03-0.02-0.06-0.05c0.27,2.12,0.53,4.23,0.8,6.35L1226.93,551.91z"></path><path fill="#f2b3c1" d="M1226.86,551.85c-0.98-0.81-14.25-11.71-18.91-13.18c-4.07-1.29-24.41,1.55-33.51,3.38      c-1.48,0.3-4.16,1.43-4.42,2.56c-0.49,2.13,2.16,4.16,4.34,4.12c6.83-0.1,20.87-0.99,20.87-0.99l-17.98,2.4      c-3.62,0.54-4.44,5.41-0.5,6.38c3.36,2.65,23.9-1.41,23.9-1.41l-0.3,1.04l-21.84,3.01c-1.24,0.2-1.94,1.53-1.39,2.66      c0.67,1.37,1.62,2.3,3.69,2.42c3.89,0.23,23.29-1.22,23.29-1.22l-19.73,3.91c-0.31,0.39,0.2,2.97,2.38,3.76      c2.11,0.77,22.18,2.7,22.18,2.7s13.46,12.76,15.91,13.32c0.76,0.17,3.04-1,5.84-2.71l-3.01-25.81      C1227.39,556.09,1227.13,553.97,1226.86,551.85z"></path><path fill="#f2b3c1" d="M1226.93,551.91l0.73,6.3c0.59,4.7,1.18,9.41,1.77,14.11c-0.59-4.7-1.18-9.41-1.77-14.11l3.01,25.81      C1236.95,580.18,1247,573,1247,573L1226.93,551.91z"></path><path fill="#aaa431" d="M1238.38 465.67l-5.43-5.59c0 0 0 0 0 0-.56.39-1.69.25-2.62.29l5.4 6.93c.88-.51 1.76-1.02 2.59-1.58C1238.34 465.7 1238.36 465.68 1238.38 465.67zM1263.9 423.68l6.91 7.79c.01-.01.03-.02.04-.02.85-.61 1.86-1.04 2.68-1.66.47-.36.91-.75 1.33-1.14-2.36-3.08-4.56-5.91-6.64-8.51-.81.32-1.81.42-2.4 1.01C1265.08 421.89 1264.62 422.92 1263.9 423.68z"></path><path fill="#aaa431" d="M1263.77,423.83l-2.26,2.27c-0.76,0.75-2.01,1.05-2.73,1.83c-0.73,0.78-1.11,1.46-1.81,2.26      c-0.7,0.79-2.68,0.93-3.34,1.77c-0.65,0.83-1.91,1.15-2.49,2.02c-0.6,0.89-1.02,1.94-1.56,2.88c-0.53,0.94-0.78,2.16-1.28,3.12      c-0.5,0.96-1.61,1.36-2.09,2.32l-1.46,2.89l-0.08,0.18c-0.14,0.06-0.3,0.12-0.42,0.2c-0.88,0.59-0.66,2.15-1.57,2.72      c-0.9,0.57,0.4,2.99-0.54,3.53c-0.93,0.53-1.26,1.63-2.21,2.15c-0.98,0.52,0.04,2.73-0.95,3.27c-0.98,0.54-2.64,0.26-3.58,0.8      c-0.94,0.53-1.6,1.46-2.47,2.04l5.43,5.59c0.87-0.64,0.92-2.08,1.77-2.73c0.86-0.66,4.07,0.32,4.92-0.39      c0.85-0.71,0.58-2.53,1.44-3.21c0.82-0.67,4.42,1.32,5.26,0.64c0.84-0.68,0.12-2.8,0.91-3.49c0.8-0.69,2.43-0.25,3.21-0.97      c0.78-0.71,1.47-1.48,2.2-2.23c0.74-0.75-0.37-3.9,0.3-4.68c0.69-0.79,1.47-1.14,2.11-1.98c0.63-0.83,1.9-0.79,2.5-1.65      c0.6-0.86-0.27-2.75,0.32-3.6l1.79-2.57c0.6-0.85,1.01-1.87,1.65-2.69c0.64-0.81,0.08-2.93,0.89-3.6      c0.79-0.67,2.32-0.45,3.17-1.03l-6.91-7.79C1263.85,423.73,1263.82,423.78,1263.77,423.83z"></path></g><circle cx="1316.5" cy="524" r="25.5" fill="#f2b3c1"></circle></g><path fill="#f2b3c1" d="M1153,384c1.78,7.58,9,16,21,16c16.03,0,23.63-3.21,25.32-14.1C1190.99,377.1,1153,384,1153,384z"></path><g><path fill="#1e1814" d="M1168.14,401.32c0.22,0.03,0.44,0.06,0.66,0.08c17.13,1.75,27.89-23.21,28.34-24.28    c0.1-0.25-0.01-0.54-0.26-0.64c-0.25-0.1-0.53,0.01-0.64,0.26c-0.11,0.25-10.93,25.36-27.34,23.69    c-9.08-0.91-13.67-9.51-15.06-16.55c-0.05-0.26-0.31-0.44-0.57-0.38c-0.26,0.05-0.44,0.31-0.38,0.57    C1154.3,391.26,1158.94,400,1168.14,401.32z"></path></g><g><path fill="#1e1814" d="M1164.31,426.45c0.29,0.04,0.59,0.07,0.9,0.09c17.25,1.11,31.36-47.41,31.95-49.48    c0.07-0.26-0.08-0.53-0.33-0.6c-0.26-0.08-0.53,0.08-0.6,0.33c-0.14,0.5-14.47,49.83-30.95,48.77    c-8.38-0.54-11.73-9.87-11.43-41.59c0-0.27-0.21-0.49-0.48-0.49c-0.27,0-0.49,0.21-0.49,0.48    C1152.6,412.56,1155.02,425.12,1164.31,426.45z"></path></g><g><path fill="#00093d" d="M1226.02,426.05c0.3-0.02,1.24,10.35,2.11,23.16c0.87,12.81,1.34,23.21,1.04,23.23      c-0.3,0.02-1.24-10.35-2.11-23.16C1226.19,436.47,1225.72,426.07,1226.02,426.05z"></path></g></g></svg>