<svg xmlns="http://www.w3.org/2000/svg" viewBox="0 0 48 48" id="motorcycle-delivery"><g data-name="Delivery Motorcycle"><path fill="#747575" d="M38 47H28a1 1 0 0 1 0-2h10a1 1 0 0 1 0 2zm-27 0H2a1 1 0 0 1 0-2h9a1 1 0 0 1 0 2zm13 0h-2a1 1 0 0 1 0-2h2a1 1 0 0 1 0 2z"></path><path fill="#c4455e" d="M21 27v5h-8a5 5 0 0 0-5 5v4H1v-4a12 12 0 0 1 12-12h6a2 2 0 0 1 2 2Z"></path><path fill="#db5669" d="M19 25h-6a12 12 0 0 0-10.87 6.93C6.35 27.3 10.94 28 17 28a2 2 0 0 1 2 2v2h2v-5a2 2 0 0 0-2-2zm18 6-4 10H21v-4h6.49a2 2 0 0 0 2-1.83C31.14 14.22 31 16.27 31 16l4 1c.2 1.42-.13-.85 2 14z"></path><path fill="#f26674" d="M37 31c-3.29 8.23-3.3 8-3.2 8a1.36 1.36 0 0 1-1.26-1.86L35 31c-2.13-14.85-1.8-12.6-2-14-2.4-.6-2.05-.32-2-1l4 1c.2 1.42-.13-.85 2 14Z"></path><path fill="#db5669" d="M39 10v6a1 1 0 0 1-1 1h-5a4 4 0 0 1 0-8h5a1 1 0 0 1 1 1Z"></path><path fill="#c4455e" d="M35.14 18c-2 0-3.06.15-4.25-.61.16-1.86-.27-.39 2.11-.39h2Z"></path><path fill="#fc6" d="M42 13a3 3 0 0 1-3 3v-6a3 3 0 0 1 3 3Z"></path><path fill="#ffde76" d="M41.56 14.56A3 3 0 0 1 40 15v-4.82a3 3 0 0 1 1.56 4.38Z"></path><path fill="#374f68" d="M31 14h-6a1 1 0 0 1 0-2h6a1 1 0 0 1 0 2Z"></path><path fill="#c4455e" d="M47 41H33c4.39-11 3.86-10 4.33-10A10 10 0 0 1 47 41Z"></path><path fill="#db5669" d="M46.8 39h-13l3.2-8a10 10 0 0 1 9.8 8Z"></path><path fill="#374f68" d="M17 41a6 6 0 0 1-12 0zm26.91 1c-1.1 6.64-10.72 6.63-11.82 0z"></path><path fill="#7c7d7d" d="M13 41a2 2 0 0 1-4 0zm26.73 1a2 2 0 0 1-3.46 0z"></path><path fill="#a87e6b" d="M1 13h14v12H1z"></path><path fill="#be927c" d="M15 13v10H9a4 4 0 0 1-4-4v-6Z"></path><path fill="#2c435e" d="M21 25h-6v-4c1.91 0 4.13-.31 5.46 2a4 4 0 0 1 .54 2Z"></path><path fill="#374f68" d="M20.46 23H15v-2c1.91 0 4.13-.31 5.46 2Z"></path><path fill="#f6ccaf" d="M10 13v6l-2-1-2 1v-6h4z"></path><path fill="#f26674" d="M39 10v5h-1a6 6 0 0 1-6-6h6a1 1 0 0 1 1 1Z"></path><path fill="#374f68" d="M32 10c-.75 0-.61-.07-3.83-5.45a1 1 0 0 1 1.66-1.1l3 5A1 1 0 0 1 32 10Z"></path><path fill="#db5669" d="M28 5h-3V1h3a2 2 0 0 1 0 4zm-7 27v9H8v-4a5 5 0 0 1 5-5z"></path><path fill="#f26674" d="M13 32a5 5 0 0 0-4.37 2.63C10.11 33.82 10.28 34 19 34v7h2v-9Z"></path><path fill="#ffdec7" d="M10 13v4H9a2 2 0 0 1-2-2v-2Z"></path><path fill="#747575" d="M40 41a2 2 0 0 1-.27 1h-3.46a2 2 0 0 1-.27-1Z"></path><path fill="#2c435e" d="M36 41a2 2 0 0 0 .27 1h-4.18a5.47 5.47 0 0 1-.09-1zm8 0a5.47 5.47 0 0 1-.09 1h-4.18a2 2 0 0 0 .27-1z"></path><path fill="#747575" d="M13 41a2 2 0 0 1-.27 1H9.27A2 2 0 0 1 9 41Z"></path><path fill="#2c435e" d="M9 41a2 2 0 0 0 .27 1H5.09A5.47 5.47 0 0 1 5 41zm8 0a5.47 5.47 0 0 1-.09 1h-4.18a2 2 0 0 0 .27-1z"></path></g></svg>